<mxfile host="Electron" modified="2023-07-25T19:32:54.974Z" agent="Mozilla/5.0 (Windows NT 10.0; Win64; x64) AppleWebKit/537.36 (KHTML, like Gecko) draw.io/21.6.1 Chrome/112.0.5615.204 Electron/24.6.1 Safari/537.36" etag="KVMHhkmRzsUVhNgW8xml" version="21.6.1" type="device">
  <diagram id="UucFHmFJ7zZiVY0_FZmM" name="Seite-1">
    <mxGraphModel dx="1313" dy="786" grid="1" gridSize="10" guides="1" tooltips="1" connect="1" arrows="1" fold="1" page="1" pageScale="1" pageWidth="1169" pageHeight="827" math="0" shadow="0">
      <root>
        <mxCell id="0" />
        <mxCell id="1" parent="0" />
        <mxCell id="7vTWxpTUgAqM-lZmj-m4-14" value="Assistant &amp; Associate Professor&#xa;Department ofÂ Molecular Biology, Cell Biology, and Biochemistry&#xa;Brown University" style="endArrow=classic;verticalAlign=top;fontSize=14;startArrow=classic;startFill=1;endFill=1;" parent="1" edge="1">
          <mxGeometry x="20" y="720" width="50" height="50" as="geometry">
            <mxPoint x="490" y="750" as="sourcePoint" />
            <mxPoint x="1144.984731883595" y="750" as="targetPoint" />
            <mxPoint x="-1" as="offset" />
          </mxGeometry>
        </mxCell>
        <mxCell id="7vTWxpTUgAqM-lZmj-m4-15" value="Postdoc&#xa;Division of Genetics&#xa;Department of Medicine&#xa;Harvard University" style="endArrow=classic;verticalAlign=top;fontSize=14;startArrow=classic;startFill=1;endFill=1;" parent="1" edge="1">
          <mxGeometry x="20" y="720" width="50" height="50" as="geometry">
            <mxPoint x="180" y="750" as="sourcePoint" />
            <mxPoint x="490" y="750" as="targetPoint" />
            <mxPoint x="1" as="offset" />
          </mxGeometry>
        </mxCell>
        <mxCell id="3Stw6r_B2xiS9IpdGpiu-6" value="&lt;div style=&quot;text-indent: 0px; background-color: rgb(248, 249, 250); text-align: left; font-size: 16px;&quot;&gt;&lt;font style=&quot;font-size: 16px;&quot;&gt;&lt;font style=&quot;font-size: 16px;&quot; face=&quot;helvetica&quot;&gt;Erica Nicole Larschan&lt;/font&gt;&lt;br&gt;&lt;/font&gt;&lt;/div&gt;&lt;span style=&quot;color: rgb(0, 0, 0); font-family: helvetica; font-style: normal; font-weight: 400; letter-spacing: normal; text-align: center; text-indent: 0px; text-transform: none; word-spacing: 0px; background-color: rgb(248, 249, 250); font-size: 16px;&quot;&gt;&lt;div style=&quot;text-align: left&quot;&gt;&lt;span&gt;Bibliographic Coupling (Cutoff 0,09)&lt;/span&gt;&lt;/div&gt;&lt;/span&gt;&lt;span style=&quot;color: rgb(0 , 0 , 0) ; font-family: &amp;quot;helvetica&amp;quot; ; font-style: normal ; font-weight: 400 ; letter-spacing: normal ; text-align: center ; text-indent: 0px ; text-transform: none ; word-spacing: 0px ; background-color: rgb(248 , 249 , 250) ; font-size: 16px&quot;&gt;&lt;div style=&quot;text-align: left&quot;&gt;&lt;span&gt;WoS - 2001-2022&lt;/span&gt;&lt;/div&gt;&lt;/span&gt;" style="text;whiteSpace=wrap;html=1;" parent="1" vertex="1">
          <mxGeometry x="50" y="50" width="280" height="60" as="geometry" />
        </mxCell>
        <mxCell id="7voxY5Re2SbjZICv-ZUU-1" value="" style="shape=image;verticalLabelPosition=bottom;labelBackgroundColor=default;verticalAlign=top;aspect=fixed;imageAspect=0;image=data:image/svg+xml,PHN2ZyB4bWxuczp4bGluaz0iaHR0cDovL3d3dy53My5vcmcvMTk5OS94bGluayIgeG1sbnM9Imh0dHA6Ly93d3cudzMub3JnLzIwMDAvc3ZnIiB2aWV3Qm94PSIwIDAgMTU1MiA4NDAiIHhtbDpzcGFjZT0icHJlc2VydmUiPiYjeGE7PHRpdGxlPjEuIEM6XFVzZXJzXGhvZmZwcm9cTmV4dGNsb3VkXFNoYXJlZFxzb3NfbWVtYmVyXFJUIHpldWdzXFR1dG9yaWFsXFJUIHR1dG9yaWFsXExhcnNjaGFuXExhcnNjaGFuLjAsMDkubmV0ICg0Myk8L3RpdGxlPiYjeGE7PGRlZnM+JiN4YTsgPHJhZGlhbEdyYWRpZW50IGdyYWRpZW50VW5pdHM9Im9iamVjdEJvdW5kaW5nQm94IiByPSIxMDAlIiBmeT0iMzAlIiBmeD0iMzAlIiBjeT0iMzAlIiBjeD0iMzAlIiBpZD0iQ3lhbiI+JiN4YTsgIDxzdG9wIHN0eWxlPSJzdG9wLWNvbG9yOnJnYigwLDI1NSwyNTUpIiBvZmZzZXQ9IjAiLz4mI3hhOyAgPHN0b3Agc3R5bGU9InN0b3AtY29sb3I6cmdiKDAsMTI4LDEyOCkiIG9mZnNldD0iMSIvPiYjeGE7IDwvcmFkaWFsR3JhZGllbnQ+JiN4YTsgPHJhZGlhbEdyYWRpZW50IGdyYWRpZW50VW5pdHM9Im9iamVjdEJvdW5kaW5nQm94IiByPSIxMDAlIiBmeT0iMzAlIiBmeD0iMzAlIiBjeT0iMzAlIiBjeD0iMzAlIiBpZD0iWWVsbG93Ij4mI3hhOyAgPHN0b3Agc3R5bGU9InN0b3AtY29sb3I6cmdiKDI1NSwyNTUsMCkiIG9mZnNldD0iMCIvPiYjeGE7ICA8c3RvcCBzdHlsZT0ic3RvcC1jb2xvcjpyZ2IoMTI4LDEyOCwwKSIgb2Zmc2V0PSIxIi8+JiN4YTsgPC9yYWRpYWxHcmFkaWVudD4mI3hhOyA8cmFkaWFsR3JhZGllbnQgZ3JhZGllbnRVbml0cz0ib2JqZWN0Qm91bmRpbmdCb3giIHI9IjEwMCUiIGZ5PSIzMCUiIGZ4PSIzMCUiIGN5PSIzMCUiIGN4PSIzMCUiIGlkPSJMaW1lR3JlZW4iPiYjeGE7ICA8c3RvcCBzdHlsZT0ic3RvcC1jb2xvcjpyZ2IoMTI3LDI1NSwwKSIgb2Zmc2V0PSIwIi8+JiN4YTsgIDxzdG9wIHN0eWxlPSJzdG9wLWNvbG9yOnJnYig2NCwxMjgsMCkiIG9mZnNldD0iMSIvPiYjeGE7IDwvcmFkaWFsR3JhZGllbnQ+JiN4YTsgPHJhZGlhbEdyYWRpZW50IGdyYWRpZW50VW5pdHM9Im9iamVjdEJvdW5kaW5nQm94IiByPSIxMDAlIiBmeT0iMzAlIiBmeD0iMzAlIiBjeT0iMzAlIiBjeD0iMzAlIiBpZD0iUmVkIj4mI3hhOyAgPHN0b3Agc3R5bGU9InN0b3AtY29sb3I6cmdiKDI1NSwwLDApIiBvZmZzZXQ9IjAiLz4mI3hhOyAgPHN0b3Agc3R5bGU9InN0b3AtY29sb3I6cmdiKDEyOCwwLDApIiBvZmZzZXQ9IjEiLz4mI3hhOyA8L3JhZGlhbEdyYWRpZW50PiYjeGE7PC9kZWZzPiYjeGE7PGcgaWQ9IlBhamVrU2lnIj4mI3hhOzxnIHRyYW5zZm9ybT0idHJhbnNsYXRlKDMgODIyKSI+JiN4YTs8ZyB0cmFuc2Zvcm09InNjYWxlKDAuMSkiPiYjeGE7PGcgdHJhbnNmb3JtPSJtYXRyaXgoMSAwIDAgLTEgMCA5NikiPiYjeGE7PHBhdGggc3R5bGU9ImZpbGw6bm9uZTsgc3Ryb2tlOnNhZGRsZWJyb3duOyBzdHJva2Utd2lkdGg6NTsiIGQ9Ik0gICA3LjY3ICA0OS45OCBMICAzMS43NiAgNzIuNzYgTCAgNDYuOTEgIDc4LjYzJiMxMDsgICAgICAgICBMICA1Ny4yMyAgODAuNDkgTSAgNzIuODYgIDY1LjIzIEwgIDY1LjczICA4My4yNSYjMTA7ICAgICAgICAgTCAgNTcuMDYgIDc1LjQ5IEwgIDU2Ljc1ICA2OC42NSBNICA3Ni4yNyAgNjguMDMmIzEwOyAgICAgICAgIEwgIDc1LjY1ICA4NC41MCBMICA5My45MiAgOTEuMDIgTCAxMDcuMjQgIDc0Ljg3JiMxMDsgICAgICAgICBNICA4MC4yOSAgNjcuNzIgTCAgODkuMjggIDg0LjgxIEwgMTA0Ljc3ICA4MS43MCYjMTA7ICAgICAgICAgTCAxMTYuMjMgIDczLjMxIEwgMTIxLjE4ICA1OS4zMyBNICA1Ni43NSAgODEuMDgmIzEwOyAgICAgICAgIEwgIDcxLjMxICA2NC4zMCIvPiYjeGE7PHBhdGggc3R5bGU9ImZpbGw6bm9uZTsgc3Ryb2tlOnNhZGRsZWJyb3duOyBzdHJva2Utd2lkdGg6MS41OyIgZD0iTSAgODYuMTggIDcwLjIxIEwgIDkxLjQ1ICA3My4wMCBMICA5NS43OCAgNjkuNTgmIzEwOyAgICAgICAgIE0gIDkxLjE0ICA2MC44OCBMICA5Ni4wOSAgNjIuNzUgTCAgOTguMjYgIDU5LjMzIi8+JiN4YTs8cGF0aCBzdHlsZT0iZmlsbDptYXJvb247IHN0cm9rZTpzYWRkbGVicm93bjsgc3Ryb2tlLXdpZHRoOjE7IiBkPSJNICA4MS4wNyAgNDkuMDggTCAgODcuODEgIDQ5LjA4IEwgIDkzLjMwICA1NC4zOCYjMTA7ICAgICAgICAgTCAgOTMuMzAgIDYwLjg4IEwgIDkzLjMwICA2Ny4zOSBMICA4Ny44MSAgNzIuNjkmIzEwOyAgICAgICAgIEwgIDgxLjA3ICA3Mi42OSBMICA3NC4zMyAgNzIuNjkgTCAgNjguODMgIDY3LjM5JiMxMDsgICAgICAgICBMICA2OC44MyAgNjAuODggTCAgNjguODMgIDU0LjM4IEwgIDc0LjMzICA0OS4wOCYjMTA7ICAgICAgICAgTCAgODEuMDcgIDQ5LjA4IHoiLz4mI3hhOzxwYXRoIHN0eWxlPSJmaWxsOm1hcm9vbjsgc3Ryb2tlOnNhZGRsZWJyb3duOyBzdHJva2Utd2lkdGg6MTsiIGQ9Ik0gIDU0LjYzICAzNy41MyBMICA2OC41MyAgNDMuNTYgTCAgNzUuMzkgIDU1Ljg1JiMxMDsgICAgICAgICBMICA2OS45MCAgNjUuMzUgTCAgNjQuNDEgIDcyLjg2IEwgIDQ4LjYwICA3NC4wNiYjMTA7ICAgICAgICAgTCAgMzQuNzEgIDY4LjA0IEwgIDIwLjgxICA1NS4wMiBMICAxNS45NSAgNDAuNzImIzEwOyAgICAgICAgIEwgIDE3LjQ0ICAzMy4yMiBMICAyNC45MiAgMjguNzIgTCAgNDAuNzMgIDMwLjUxJiMxMDsgICAgICAgICBMICA1NC42MyAgMzcuNTMgeiIvPiYjeGE7PHBhdGggc3R5bGU9ImZpbGw6bm9uZTsgc3Ryb2tlOnNhZGRsZWJyb3duOyBzdHJva2Utd2lkdGg6NTsiIGQ9Ik0gIDc3LjgyICA1MC42MyBMIDEwMy44NCAgNTkuMzMgTCAxMzEuMTAgIDQzLjgwJiMxMDsgICAgICAgICBMIDEzOS40NiAgMjcuOTUgTCAxMzkuMTUgIDE1LjgzIE0gIDM1Ljk5ICAgNS4yNyYjMTA7ICAgICAgICAgTCAgNDcuMTUgIDMyLjkyIEwgIDYxLjcxICA1MC4wMSBMICA3MC4wNyAgNDYuOTAmIzEwOyAgICAgICAgIEwgIDgyLjc3ICA0NS4wNCBMICA4My4zOSAgMjcuMDIgTCAgNjUuNDIgIDEyLjExJiMxMDsgICAgICAgICBNICA2OC41MiAgNTAuNjMgTCAgOTEuMTQgIDQ5LjM5IEwgMTAzLjUzICA0My4xNyYjMTA7ICAgICAgICAgTCAxMTcuMTYgIDIyLjY3IEwgMTE1LjMwICAgOC4zOCIvPiYjeGE7PHBhdGggc3R5bGU9ImZpbGw6bm9uZTsgc3Ryb2tlOndoaXRlOyBzdHJva2Utd2lkdGg6NTsiIGQ9Ik0gIDQxLjU3ICA1NC45OCBMICA2MC4xNiAgNjQuNjEgTSAgNTIuNDEgIDY2LjE3JiMxMDsgICAgICAgICBMICA1Ny45OSAgNTcuNDciLz4mI3hhOzwvZz4mI3hhOzwvZz4mI3hhOzxhbmltYXRlTW90aW9uIGZpbGw9ImZyZWV6ZSIgYmVnaW49IjEyMHMiIHBhdGg9Ik0zIDAgTDE1MzQgMCIgZHVyPSIyMHMiLz4mI3hhOzwvZz4mI3hhOzxnIHRyYW5zZm9ybT0idHJhbnNsYXRlKDMgODIyKSI+JiN4YTs8ZyB0cmFuc2Zvcm09InNjYWxlKDAuMSkiPiYjeGE7PHRleHQgc3R5bGU9ImZvbnQtZmFtaWx5OkJydXNoIFNjcmlwdCBNVDtmb250LXNpemU6NzVweDtmaWxsOmdyZWVuOyIgeT0iMTQwIiB4PSI1Ij5QYWplazwvdGV4dD4mI3hhOzwvZz4mI3hhOzxhbmltYXRlTW90aW9uIGZpbGw9ImZyZWV6ZSIgYmVnaW49IjEyMHMiIHBhdGg9Ik0zIDAgTDE1MzQgMCIgZHVyPSIwLjFzIi8+JiN4YTs8L2c+JiN4YTs8L2c+ICAgICAgJiN4YTsmI3hhOzxnIGlkPSJQYWpla05ldCI+JiN4YTsmI3hhOyYjeGE7PGxpbmUgc3R5bGU9InN0cm9rZS13aWR0aDoxNy45NjtzdHJva2U6cmdiKDAsMCwwKSIgeTI9IjYyNC44OSIgeDI9Ijg2OS4xMiIgeTE9IjU5NC43OCIgeDE9Ijk0Ni43MiIvPiYjeGE7JiN4YTs8bGluZSBzdHlsZT0ic3Ryb2tlLXdpZHRoOjE2LjM0O3N0cm9rZTpyZ2IoMjUsMjUsMjUpIiB5Mj0iNzk4LjAwIiB4Mj0iOTQ2LjcyIiB5MT0iNTk0Ljc4IiB4MT0iOTQ2LjcyIi8+JiN4YTsmI3hhOzxsaW5lIHN0eWxlPSJzdHJva2Utd2lkdGg6MTIuNzk7c3Ryb2tlOnJnYig3Niw3Niw3NikiIHkyPSI0MjkuMTQiIHgyPSI4MTguNDQiIHkxPSI2MjQuODkiIHgxPSI4NjkuMTIiLz4mI3hhOyYjeGE7PGxpbmUgc3R5bGU9InN0cm9rZS13aWR0aDoxMi43MztzdHJva2U6cmdiKDc2LDc2LDc2KSIgeTI9IjYyNC44OSIgeDI9Ijg2OS4xMiIgeTE9Ijc5OC4wMCIgeDE9Ijk0Ni43MiIvPiYjeGE7JiN4YTs8bGluZSBzdHlsZT0ic3Ryb2tlLXdpZHRoOjEyLjY0O3N0cm9rZTpyZ2IoNzYsNzYsNzYpIiB5Mj0iNDY2Ljc5IiB4Mj0iMTE2MC45NyIgeTE9IjY4NC4wNSIgeDE9IjExNTguOTUiLz4mI3hhOyYjeGE7PGxpbmUgc3R5bGU9InN0cm9rZS13aWR0aDoxMi4zNztzdHJva2U6cmdiKDg5LDg5LDg5KSIgeTI9IjY0My4xOCIgeDI9IjEyODQuMjQiIHkxPSI0MjAuMDAiIHgxPSIxNDEyLjMyIi8+JiN4YTsmI3hhOzxsaW5lIHN0eWxlPSJzdHJva2Utd2lkdGg6MTEuOTU7c3Ryb2tlOnJnYig4OSw4OSw4OSkiIHkyPSI1OTQuNzgiIHgyPSI5NDYuNzIiIHkxPSI1NDYuMDAiIHgxPSIxMjcyLjY0Ii8+JiN4YTsmI3hhOzxsaW5lIHN0eWxlPSJzdHJva2Utd2lkdGg6MTEuNjc7c3Ryb2tlOnJnYig4OSw4OSw4OSkiIHkyPSI0NDcuNDMiIHgyPSI0NjYuODEiIHkxPSI1NTAuNjgiIHgxPSI3NDQuOTYiLz4mI3hhOyYjeGE7PGxpbmUgc3R5bGU9InN0cm9rZS13aWR0aDoxMS41MTtzdHJva2U6cmdiKDEwMiwxMDIsMTAyKSIgeTI9IjQ0Ny40MyIgeDI9IjQ2Ni44MSIgeTE9IjE3My4xNiIgeDE9IjQ4OC4wMyIvPiYjeGE7JiN4YTs8bGluZSBzdHlsZT0ic3Ryb2tlLXdpZHRoOjExLjMyO3N0cm9rZTpyZ2IoMTAyLDEwMiwxMDIpIiB5Mj0iNDI5LjE0IiB4Mj0iODE4LjQ0IiB5MT0iNTk0Ljc4IiB4MT0iOTQ2LjcyIi8+JiN4YTsmI3hhOzxsaW5lIHN0eWxlPSJzdHJva2Utd2lkdGg6MTAuNzY7c3Ryb2tlOnJnYigxMDIsMTAyLDEwMikiIHkyPSI0NjYuNzkiIHgyPSIxMTYwLjk3IiB5MT0iNDIxLjYxIiB4MT0iMTIxMC41NiIvPiYjeGE7JiN4YTs8bGluZSBzdHlsZT0ic3Ryb2tlLXdpZHRoOjEwLjczO3N0cm9rZTpyZ2IoMTAyLDEwMiwxMDIpIiB5Mj0iNjY4Ljk5IiB4Mj0iNjA1LjI4IiB5MT0iNTUwLjY4IiB4MT0iNzQ0Ljk2Ii8+JiN4YTsmI3hhOzxsaW5lIHN0eWxlPSJzdHJva2Utd2lkdGg6MTAuNjk7c3Ryb2tlOnJnYigxMDIsMTAyLDEwMikiIHkyPSI1NTAuNjgiIHgyPSI3NDQuOTYiIHkxPSI2MjQuODkiIHgxPSI4NjkuMTIiLz4mI3hhOyYjeGE7PGxpbmUgc3R5bGU9InN0cm9rZS13aWR0aDoxMC41NztzdHJva2U6cmdiKDExNCwxMTQsMTE0KSIgeTI9IjQ0Ny40MyIgeDI9IjQ2Ni44MSIgeTE9IjM0Mi4wMiIgeDE9IjU0My4yMCIvPiYjeGE7JiN4YTs8bGluZSBzdHlsZT0ic3Ryb2tlLXdpZHRoOjEwLjQ5O3N0cm9rZTpyZ2IoMTE0LDExNCwxMTQpIiB5Mj0iNjI0Ljg5IiB4Mj0iODY5LjEyIiB5MT0iMzc5LjY3IiB4MT0iMTE0OC40OCIvPiYjeGE7JiN4YTs8bGluZSBzdHlsZT0ic3Ryb2tlLXdpZHRoOjEwLjI2O3N0cm9rZTpyZ2IoMTE0LDExNCwxMTQpIiB5Mj0iNTUwLjY4IiB4Mj0iNzQ0Ljk2IiB5MT0iNDI5LjE0IiB4MT0iODE4LjQ0Ii8+JiN4YTsmI3hhOzxsaW5lIHN0eWxlPSJzdHJva2Utd2lkdGg6MTAuMjI7c3Ryb2tlOnJnYigxMTQsMTE0LDExNCkiIHkyPSI2NjguOTkiIHgyPSI2MDUuMjgiIHkxPSI3OTguMDAiIHgxPSI4MDcuMDQiLz4mI3hhOyYjeGE7PGxpbmUgc3R5bGU9InN0cm9rZS13aWR0aDoxMC4xNTtzdHJva2U6cmdiKDExNCwxMTQsMTE0KSIgeTI9IjU2NS43NCIgeDI9IjQwMy41MiIgeTE9IjQ0Ny40MyIgeDE9IjQ2Ni44MSIvPiYjeGE7JiN4YTs8bGluZSBzdHlsZT0ic3Ryb2tlLXdpZHRoOjEwLjAzO3N0cm9rZTpyZ2IoMTE0LDExNCwxMTQpIiB5Mj0iNTY1Ljc0IiB4Mj0iNDAzLjUyIiB5MT0iMTczLjE2IiB4MT0iNDg4LjAzIi8+JiN4YTsmI3hhOzxsaW5lIHN0eWxlPSJzdHJva2Utd2lkdGg6MTAuMDA7c3Ryb2tlOnJnYigxMTQsMTE0LDExNCkiIHkyPSI3OTguMDAiIHgyPSI4MDcuMDQiIHkxPSI2MjQuODkiIHgxPSI4NjkuMTIiLz4mI3hhOyYjeGE7PGxpbmUgc3R5bGU9InN0cm9rZS13aWR0aDo5LjkwO3N0cm9rZTpyZ2IoMTE0LDExNCwxMTQpIiB5Mj0iNDIxLjYxIiB4Mj0iMTIxMC41NiIgeTE9IjQyMC4wMCIgeDE9IjE0MTIuMzIiLz4mI3hhOyYjeGE7PGxpbmUgc3R5bGU9InN0cm9rZS13aWR0aDo5LjgxO3N0cm9rZTpyZ2IoMTE0LDExNCwxMTQpIiB5Mj0iNjUzLjkzIiB4Mj0iNzcuNjAiIHkxPSI3OTguMDAiIHgxPSIzNDEuNDQiLz4mI3hhOyYjeGE7PGxpbmUgc3R5bGU9InN0cm9rZS13aWR0aDo5LjQwO3N0cm9rZTpyZ2IoMTI3LDEyNywxMjcpIiB5Mj0iMTczLjE2IiB4Mj0iNDg4LjAzIiB5MT0iMzQyLjAyIiB4MT0iNTQzLjIwIi8+JiN4YTsmI3hhOzxsaW5lIHN0eWxlPSJzdHJva2Utd2lkdGg6OS4zOTtzdHJva2U6cmdiKDEyNywxMjcsMTI3KSIgeTI9IjU5NC43OCIgeDI9Ijk0Ni43MiIgeTE9IjY0My4xOCIgeDE9IjEyODQuMjQiLz4mI3hhOyYjeGE7PGxpbmUgc3R5bGU9InN0cm9rZS13aWR0aDo5LjM4O3N0cm9rZTpyZ2IoMTI3LDEyNywxMjcpIiB5Mj0iNzk4LjAwIiB4Mj0iODA3LjA0IiB5MT0iNDI5LjE0IiB4MT0iODE4LjQ0Ii8+JiN4YTsmI3hhOzxsaW5lIHN0eWxlPSJzdHJva2Utd2lkdGg6OS4zNDtzdHJva2U6cmdiKDEyNywxMjcsMTI3KSIgeTI9IjY2OC45OSIgeDI9IjYwNS4yOCIgeTE9IjQyOS4xNCIgeDE9IjgxOC40NCIvPiYjeGE7JiN4YTs8bGluZSBzdHlsZT0ic3Ryb2tlLXdpZHRoOjkuMzE7c3Ryb2tlOnJnYigxMjcsMTI3LDEyNykiIHkyPSI3NjAuNDEiIHgyPSIxMTQ4LjQ4IiB5MT0iNTQ2LjAwIiB4MT0iMTI3Mi42NCIvPiYjeGE7JiN4YTs8bGluZSBzdHlsZT0ic3Ryb2tlLXdpZHRoOjkuMTk7c3Ryb2tlOnJnYigxMjcsMTI3LDEyNykiIHkyPSI3OTguMDAiIHgyPSIzNDEuNDQiIHkxPSI2ODIuOTciIHgxPSIzNDEuNDQiLz4mI3hhOyYjeGE7PGxpbmUgc3R5bGU9InN0cm9rZS13aWR0aDo4LjkxO3N0cm9rZTpyZ2IoMTI3LDEyNywxMjcpIiB5Mj0iNjI0Ljg5IiB4Mj0iODY5LjEyIiB5MT0iNDIxLjYxIiB4MT0iMTIxMC41NiIvPiYjeGE7JiN4YTs8bGluZSBzdHlsZT0ic3Ryb2tlLXdpZHRoOjguOTA7c3Ryb2tlOnJnYigxMjcsMTI3LDEyNykiIHkyPSIzNzkuNjciIHgyPSIxMTQ4LjQ4IiB5MT0iNDIwLjAwIiB4MT0iMTQxMi4zMiIvPiYjeGE7JiN4YTs8bGluZSBzdHlsZT0ic3Ryb2tlLXdpZHRoOjguODQ7c3Ryb2tlOnJnYigxNDAsMTQwLDE0MCkiIHkyPSI2MjQuODkiIHgyPSI4NjkuMTIiIHkxPSI2NDMuMTgiIHgxPSIxMjg0LjI0Ii8+JiN4YTsmI3hhOzxsaW5lIHN0eWxlPSJzdHJva2Utd2lkdGg6OC42NDtzdHJva2U6cmdiKDE0MCwxNDAsMTQwKSIgeTI9IjY4NC4wNSIgeDI9IjExNTguOTUiIHkxPSI0MjEuNjEiIHgxPSIxMjEwLjU2Ii8+JiN4YTsmI3hhOzxsaW5lIHN0eWxlPSJzdHJva2Utd2lkdGg6OC41NDtzdHJva2U6cmdiKDE0MCwxNDAsMTQwKSIgeTI9IjcwNC40OCIgeDI9IjEwNzAuODgiIHkxPSI0MjEuNjEiIHgxPSIxMjEwLjU2Ii8+JiN4YTsmI3hhOzxsaW5lIHN0eWxlPSJzdHJva2Utd2lkdGg6OC41MjtzdHJva2U6cmdiKDE0MCwxNDAsMTQwKSIgeTI9IjQyMS42MSIgeDI9IjEyMTAuNTYiIHkxPSI1NDYuMDAiIHgxPSIxMjcyLjY0Ii8+JiN4YTsmI3hhOzxsaW5lIHN0eWxlPSJzdHJva2Utd2lkdGg6OC40OTtzdHJva2U6cmdiKDE0MCwxNDAsMTQwKSIgeTI9IjU2NS43NCIgeDI9IjQwMy41MiIgeTE9IjY2OC45OSIgeDE9IjYwNS4yOCIvPiYjeGE7JiN4YTs8bGluZSBzdHlsZT0ic3Ryb2tlLXdpZHRoOjguNDM7c3Ryb2tlOnJnYigxNDAsMTQwLDE0MCkiIHkyPSI2NDMuMTgiIHgyPSIxMjg0LjI0IiB5MT0iNTU4LjIxIiB4MT0iMTQxMi4zMiIvPiYjeGE7JiN4YTs8bGluZSBzdHlsZT0ic3Ryb2tlLXdpZHRoOjguMzk7c3Ryb2tlOnJnYigxNDAsMTQwLDE0MCkiIHkyPSI2NjguOTkiIHgyPSI2MDUuMjgiIHkxPSI2NDMuMTgiIHgxPSIxMjg0LjI0Ii8+JiN4YTsmI3hhOzxsaW5lIHN0eWxlPSJzdHJva2Utd2lkdGg6OC4zNztzdHJva2U6cmdiKDE0MCwxNDAsMTQwKSIgeTI9IjYyNC44OSIgeDI9Ijg2OS4xMiIgeTE9IjU0Ni4wMCIgeDE9IjEyNzIuNjQiLz4mI3hhOyYjeGE7PGxpbmUgc3R5bGU9InN0cm9rZS13aWR0aDo4LjM1O3N0cm9rZTpyZ2IoMTQwLDE0MCwxNDApIiB5Mj0iNTUwLjY4IiB4Mj0iNzQ0Ljk2IiB5MT0iNTk0Ljc4IiB4MT0iOTQ2LjcyIi8+JiN4YTsmI3hhOzxsaW5lIHN0eWxlPSJzdHJva2Utd2lkdGg6OC4yMjtzdHJva2U6cmdiKDE0MCwxNDAsMTQwKSIgeTI9IjY2OC45OSIgeDI9IjYwNS4yOCIgeTE9IjYyNC44OSIgeDE9Ijg2OS4xMiIvPiYjeGE7JiN4YTs8bGluZSBzdHlsZT0ic3Ryb2tlLXdpZHRoOjguMTU7c3Ryb2tlOnJnYigxNDAsMTQwLDE0MCkiIHkyPSI1NTAuNjgiIHgyPSI3NDQuOTYiIHkxPSIzNzkuNjciIHgxPSIxMTQ4LjQ4Ii8+JiN4YTsmI3hhOzxsaW5lIHN0eWxlPSJzdHJva2Utd2lkdGg6OC4wODtzdHJva2U6cmdiKDE0MCwxNDAsMTQwKSIgeTI9IjYyNC44OSIgeDI9Ijg2OS4xMiIgeTE9IjcwNC40OCIgeDE9IjEwNzAuODgiLz4mI3hhOyYjeGE7PGxpbmUgc3R5bGU9InN0cm9rZS13aWR0aDo4LjA0O3N0cm9rZTpyZ2IoMTQwLDE0MCwxNDApIiB5Mj0iNTk0Ljc4IiB4Mj0iOTQ2LjcyIiB5MT0iNDIxLjYxIiB4MT0iMTIxMC41NiIvPiYjeGE7JiN4YTs8bGluZSBzdHlsZT0ic3Ryb2tlLXdpZHRoOjcuOTc7c3Ryb2tlOnJnYigxNTMsMTUzLDE1MykiIHkyPSI0NDcuNDMiIHgyPSI0NjYuODEiIHkxPSI2NjguOTkiIHgxPSI2MDUuMjgiLz4mI3hhOyYjeGE7PGxpbmUgc3R5bGU9InN0cm9rZS13aWR0aDo3Ljg3O3N0cm9rZTpyZ2IoMTUzLDE1MywxNTMpIiB5Mj0iNDQ3LjQzIiB4Mj0iNDY2LjgxIiB5MT0iNzYwLjQxIiB4MT0iMTE0OC40OCIvPiYjeGE7JiN4YTs8bGluZSBzdHlsZT0ic3Ryb2tlLXdpZHRoOjcuNzQ7c3Ryb2tlOnJnYigxNTMsMTUzLDE1MykiIHkyPSI1OTQuNzgiIHgyPSI5NDYuNzIiIHkxPSIzNzkuNjciIHgxPSIxMTQ4LjQ4Ii8+JiN4YTsmI3hhOzxsaW5lIHN0eWxlPSJzdHJva2Utd2lkdGg6Ny42MTtzdHJva2U6cmdiKDE1MywxNTMsMTUzKSIgeTI9IjU0Ni4wMCIgeDI9IjEyNzIuNjQiIHkxPSI2NDMuMTgiIHgxPSIxMjg0LjI0Ii8+JiN4YTsmI3hhOzxsaW5lIHN0eWxlPSJzdHJva2Utd2lkdGg6Ny42MDtzdHJva2U6cmdiKDE1MywxNTMsMTUzKSIgeTI9IjQ2Ni43OSIgeDI9IjExNjAuOTciIHkxPSIzNzkuNjciIHgxPSIxMTQ4LjQ4Ii8+JiN4YTsmI3hhOzxsaW5lIHN0eWxlPSJzdHJva2Utd2lkdGg6Ny41ODtzdHJva2U6cmdiKDE1MywxNTMsMTUzKSIgeTI9IjQ0Ny40MyIgeDI9IjQ2Ni44MSIgeTE9IjU5NC43OCIgeDE9Ijk0Ni43MiIvPiYjeGE7JiN4YTs8bGluZSBzdHlsZT0ic3Ryb2tlLXdpZHRoOjcuNTU7c3Ryb2tlOnJnYigxNTMsMTUzLDE1MykiIHkyPSIzNzkuNjciIHgyPSIxMTQ4LjQ4IiB5MT0iNDIxLjYxIiB4MT0iMTIxMC41NiIvPiYjeGE7JiN4YTs8bGluZSBzdHlsZT0ic3Ryb2tlLXdpZHRoOjcuNDg7c3Ryb2tlOnJnYigxNTMsMTUzLDE1MykiIHkyPSI1NTAuNjgiIHgyPSI3NDQuOTYiIHkxPSI3OTguMDAiIHgxPSI4MDcuMDQiLz4mI3hhOyYjeGE7PGxpbmUgc3R5bGU9InN0cm9rZS13aWR0aDo3LjQ2O3N0cm9rZTpyZ2IoMTUzLDE1MywxNTMpIiB5Mj0iNTY1Ljc0IiB4Mj0iNDAzLjUyIiB5MT0iNTUwLjY4IiB4MT0iNzQ0Ljk2Ii8+JiN4YTsmI3hhOzxsaW5lIHN0eWxlPSJzdHJva2Utd2lkdGg6Ny40NDtzdHJva2U6cmdiKDE1MywxNTMsMTUzKSIgeTI9Ijc5OC4wMCIgeDI9Ijk0Ni43MiIgeTE9IjU0Ni4wMCIgeDE9IjEyNzIuNjQiLz4mI3hhOyYjeGE7PGxpbmUgc3R5bGU9InN0cm9rZS13aWR0aDo3LjQyO3N0cm9rZTpyZ2IoMTUzLDE1MywxNTMpIiB5Mj0iMzc5LjY3IiB4Mj0iMTE0OC40OCIgeTE9IjY0My4xOCIgeDE9IjEyODQuMjQiLz4mI3hhOyYjeGE7PGxpbmUgc3R5bGU9InN0cm9rZS13aWR0aDo3LjM4O3N0cm9rZTpyZ2IoMTUzLDE1MywxNTMpIiB5Mj0iNDIwLjAwIiB4Mj0iMTQxMi4zMiIgeTE9IjU1OC4yMSIgeDE9IjE0MTIuMzIiLz4mI3hhOyYjeGE7PGxpbmUgc3R5bGU9InN0cm9rZS13aWR0aDo3LjM3O3N0cm9rZTpyZ2IoMTUzLDE1MywxNTMpIiB5Mj0iNTY1Ljc0IiB4Mj0iNDAzLjUyIiB5MT0iMzQyLjAyIiB4MT0iNTQzLjIwIi8+JiN4YTsmI3hhOzxsaW5lIHN0eWxlPSJzdHJva2Utd2lkdGg6Ny4yODtzdHJva2U6cmdiKDE1MywxNTMsMTUzKSIgeTI9IjQ0Ny40MyIgeDI9IjQ2Ni44MSIgeTE9IjYyNC44OSIgeDE9Ijg2OS4xMiIvPiYjeGE7JiN4YTs8bGluZSBzdHlsZT0ic3Ryb2tlLXdpZHRoOjcuMjY7c3Ryb2tlOnJnYigxNTMsMTUzLDE1MykiIHkyPSI1NjUuNzQiIHgyPSI0MDMuNTIiIHkxPSI1OTQuNzgiIHgxPSI5NDYuNzIiLz4mI3hhOyYjeGE7PGxpbmUgc3R5bGU9InN0cm9rZS13aWR0aDo3LjI0O3N0cm9rZTpyZ2IoMTUzLDE1MywxNTMpIiB5Mj0iNjI0Ljg5IiB4Mj0iODY5LjEyIiB5MT0iNDY2Ljc5IiB4MT0iMTE2MC45NyIvPiYjeGE7JiN4YTs8bGluZSBzdHlsZT0ic3Ryb2tlLXdpZHRoOjcuMTc7c3Ryb2tlOnJnYigxNTMsMTUzLDE1MykiIHkyPSI1NDYuMDAiIHgyPSIxMjcyLjY0IiB5MT0iNDIwLjAwIiB4MT0iMTQxMi4zMiIvPiYjeGE7JiN4YTs8bGluZSBzdHlsZT0ic3Ryb2tlLXdpZHRoOjcuMDc7c3Ryb2tlOnJnYigxNjUsMTY1LDE2NSkiIHkyPSI3OTguMDAiIHgyPSI4MDcuMDQiIHkxPSI2NDMuMTgiIHgxPSIxMjg0LjI0Ii8+JiN4YTsmI3hhOzxsaW5lIHN0eWxlPSJzdHJva2Utd2lkdGg6Ny4wMDtzdHJva2U6cmdiKDE2NSwxNjUsMTY1KSIgeTI9IjQyMS42MSIgeDI9IjEyMTAuNTYiIHkxPSI2NDMuMTgiIHgxPSIxMjg0LjI0Ii8+JiN4YTsmI3hhOzxsaW5lIHN0eWxlPSJzdHJva2Utd2lkdGg6Ni45NztzdHJva2U6cmdiKDE2NSwxNjUsMTY1KSIgeTI9IjU2NS43NCIgeDI9IjQwMy41MiIgeTE9IjYyNC44OSIgeDE9Ijg2OS4xMiIvPiYjeGE7JiN4YTs8bGluZSBzdHlsZT0ic3Ryb2tlLXdpZHRoOjYuOTQ7c3Ryb2tlOnJnYigxNjUsMTY1LDE2NSkiIHkyPSI1NjUuNzQiIHgyPSI0MDMuNTIiIHkxPSI0MjkuMTQiIHgxPSI4MTguNDQiLz4mI3hhOyYjeGE7PGxpbmUgc3R5bGU9InN0cm9rZS13aWR0aDo2Ljg3O3N0cm9rZTpyZ2IoMTY1LDE2NSwxNjUpIiB5Mj0iNzk4LjAwIiB4Mj0iODA3LjA0IiB5MT0iNTk0Ljc4IiB4MT0iOTQ2LjcyIi8+JiN4YTsmI3hhOzxsaW5lIHN0eWxlPSJzdHJva2Utd2lkdGg6Ni44NDtzdHJva2U6cmdiKDE2NSwxNjUsMTY1KSIgeTI9IjY2OC45OSIgeDI9IjYwNS4yOCIgeTE9IjU5NC43OCIgeDE9Ijk0Ni43MiIvPiYjeGE7JiN4YTs8bGluZSBzdHlsZT0ic3Ryb2tlLXdpZHRoOjYuNzk7c3Ryb2tlOnJnYigxNjUsMTY1LDE2NSkiIHkyPSI3OTguMDAiIHgyPSI4MDcuMDQiIHkxPSI3OTguMDAiIHgxPSI5NDYuNzIiLz4mI3hhOyYjeGE7PGxpbmUgc3R5bGU9InN0cm9rZS13aWR0aDo2Ljc5O3N0cm9rZTpyZ2IoMTY1LDE2NSwxNjUpIiB5Mj0iNTk0Ljc4IiB4Mj0iOTQ2LjcyIiB5MT0iNDY2Ljc5IiB4MT0iMTE2MC45NyIvPiYjeGE7JiN4YTs8bGluZSBzdHlsZT0ic3Ryb2tlLXdpZHRoOjYuNjc7c3Ryb2tlOnJnYigxNjUsMTY1LDE2NSkiIHkyPSI2MjQuODkiIHgyPSI4NjkuMTIiIHkxPSI0MjAuMDAiIHgxPSIxNDEyLjMyIi8+JiN4YTsmI3hhOzxsaW5lIHN0eWxlPSJzdHJva2Utd2lkdGg6Ni42NDtzdHJva2U6cmdiKDE2NSwxNjUsMTY1KSIgeTI9IjQ2Ni43OSIgeDI9IjExNjAuOTciIHkxPSI0MjAuMDAiIHgxPSIxNDEyLjMyIi8+JiN4YTsmI3hhOzxsaW5lIHN0eWxlPSJzdHJva2Utd2lkdGg6Ni41MTtzdHJva2U6cmdiKDE2NSwxNjUsMTY1KSIgeTI9IjU4Ny4yNSIgeDI9IjExMzkuNzUiIHkxPSI0MjEuNjEiIHgxPSIxMjEwLjU2Ii8+JiN4YTsmI3hhOzxsaW5lIHN0eWxlPSJzdHJva2Utd2lkdGg6Ni40OTtzdHJva2U6cmdiKDE2NSwxNjUsMTY1KSIgeTI9IjYyNC44OSIgeDI9Ijg2OS4xMiIgeTE9Ijc2MC40MSIgeDE9IjExNDguNDgiLz4mI3hhOyYjeGE7PGxpbmUgc3R5bGU9InN0cm9rZS13aWR0aDo2LjQ3O3N0cm9rZTpyZ2IoMTY1LDE2NSwxNjUpIiB5Mj0iNDQ3LjQzIiB4Mj0iNDY2LjgxIiB5MT0iMzc5LjY3IiB4MT0iMTE0OC40OCIvPiYjeGE7JiN4YTs8bGluZSBzdHlsZT0ic3Ryb2tlLXdpZHRoOjYuNDI7c3Ryb2tlOnJnYigxNjUsMTY1LDE2NSkiIHkyPSIzNDIuMDIiIHgyPSI1NDMuMjAiIHkxPSI3NjAuNDEiIHgxPSIxMTQ4LjQ4Ii8+JiN4YTsmI3hhOzxsaW5lIHN0eWxlPSJzdHJva2Utd2lkdGg6Ni4zODtzdHJva2U6cmdiKDE2NSwxNjUsMTY1KSIgeTI9IjM3OS42NyIgeDI9IjExNDguNDgiIHkxPSI1NDYuMDAiIHgxPSIxMjcyLjY0Ii8+JiN4YTsmI3hhOzxsaW5lIHN0eWxlPSJzdHJva2Utd2lkdGg6Ni4zNDtzdHJva2U6cmdiKDE2NSwxNjUsMTY1KSIgeTI9IjM0Mi4wMiIgeDI9IjU0My4yMCIgeTE9Ijc5OC4wMCIgeDE9IjgwNy4wNCIvPiYjeGE7JiN4YTs8bGluZSBzdHlsZT0ic3Ryb2tlLXdpZHRoOjYuMzA7c3Ryb2tlOnJnYigxNjUsMTY1LDE2NSkiIHkyPSIxNzMuMTYiIHgyPSI0ODguMDMiIHkxPSI2NjguOTkiIHgxPSI2MDUuMjgiLz4mI3hhOyYjeGE7PGxpbmUgc3R5bGU9InN0cm9rZS13aWR0aDo2LjE5O3N0cm9rZTpyZ2IoMTc4LDE3OCwxNzgpIiB5Mj0iNzYwLjQxIiB4Mj0iMTE0OC40OCIgeTE9IjM3OS42NyIgeDE9IjExNDguNDgiLz4mI3hhOyYjeGE7PGxpbmUgc3R5bGU9InN0cm9rZS13aWR0aDo2LjE4O3N0cm9rZTpyZ2IoMTc4LDE3OCwxNzgpIiB5Mj0iNDI5LjE0IiB4Mj0iODE4LjQ0IiB5MT0iNDY2Ljc5IiB4MT0iMTE2MC45NyIvPiYjeGE7JiN4YTs8bGluZSBzdHlsZT0ic3Ryb2tlLXdpZHRoOjYuMTc7c3Ryb2tlOnJnYigxNzgsMTc4LDE3OCkiIHkyPSI0NDcuNDMiIHgyPSI0NjYuODEiIHkxPSI3OTguMDAiIHgxPSI5NDYuNzIiLz4mI3hhOyYjeGE7PGxpbmUgc3R5bGU9InN0cm9rZS13aWR0aDo2LjE3O3N0cm9rZTpyZ2IoMTc4LDE3OCwxNzgpIiB5Mj0iNTk0Ljc4IiB4Mj0iOTQ2LjcyIiB5MT0iNzA0LjQ4IiB4MT0iMTA3MC44OCIvPiYjeGE7JiN4YTs8bGluZSBzdHlsZT0ic3Ryb2tlLXdpZHRoOjYuMTY7c3Ryb2tlOnJnYigxNzgsMTc4LDE3OCkiIHkyPSI3OTguMDAiIHgyPSI5NDYuNzIiIHkxPSI0MjEuNjEiIHgxPSIxMjEwLjU2Ii8+JiN4YTsmI3hhOzxsaW5lIHN0eWxlPSJzdHJva2Utd2lkdGg6Ni4wODtzdHJva2U6cmdiKDE3OCwxNzgsMTc4KSIgeTI9IjU5NC43OCIgeDI9Ijk0Ni43MiIgeTE9Ijc2MC40MSIgeDE9IjExNDguNDgiLz4mI3hhOyYjeGE7PGxpbmUgc3R5bGU9InN0cm9rZS13aWR0aDo2LjA3O3N0cm9rZTpyZ2IoMTc4LDE3OCwxNzgpIiB5Mj0iNDIxLjYxIiB4Mj0iMTIxMC41NiIgeTE9IjU1OC4yMSIgeDE9IjE0MTIuMzIiLz4mI3hhOyYjeGE7PGxpbmUgc3R5bGU9InN0cm9rZS13aWR0aDo2LjA1O3N0cm9rZTpyZ2IoMTc4LDE3OCwxNzgpIiB5Mj0iNTUwLjY4IiB4Mj0iNzQ0Ljk2IiB5MT0iNzk4LjAwIiB4MT0iOTQ2LjcyIi8+JiN4YTsmI3hhOzxsaW5lIHN0eWxlPSJzdHJva2Utd2lkdGg6Ni4wMztzdHJva2U6cmdiKDE3OCwxNzgsMTc4KSIgeTI9IjQyOS4xNCIgeDI9IjgxOC40NCIgeTE9IjY0My4xOCIgeDE9IjEyODQuMjQiLz4mI3hhOyYjeGE7PGxpbmUgc3R5bGU9InN0cm9rZS13aWR0aDo2LjAzO3N0cm9rZTpyZ2IoMTc4LDE3OCwxNzgpIiB5Mj0iNDI5LjE0IiB4Mj0iODE4LjQ0IiB5MT0iNzk4LjAwIiB4MT0iOTQ2LjcyIi8+JiN4YTsmI3hhOzxsaW5lIHN0eWxlPSJzdHJva2Utd2lkdGg6NS45MztzdHJva2U6cmdiKDE3OCwxNzgsMTc4KSIgeTI9Ijc5OC4wMCIgeDI9Ijk0Ni43MiIgeTE9IjM3OS42NyIgeDE9IjExNDguNDgiLz4mI3hhOyYjeGE7PGxpbmUgc3R5bGU9InN0cm9rZS13aWR0aDo1Ljg3O3N0cm9rZTpyZ2IoMTc4LDE3OCwxNzgpIiB5Mj0iNzYwLjQxIiB4Mj0iMTE0OC40OCIgeTE9IjQ2Ni43OSIgeDE9IjExNjAuOTciLz4mI3hhOyYjeGE7PGxpbmUgc3R5bGU9InN0cm9rZS13aWR0aDo1LjgxO3N0cm9rZTpyZ2IoMTc4LDE3OCwxNzgpIiB5Mj0iNTUwLjY4IiB4Mj0iNzQ0Ljk2IiB5MT0iNDY2Ljc5IiB4MT0iMTE2MC45NyIvPiYjeGE7JiN4YTs8bGluZSBzdHlsZT0ic3Ryb2tlLXdpZHRoOjUuNzY7c3Ryb2tlOnJnYigxNzgsMTc4LDE3OCkiIHkyPSIxNzMuMTYiIHgyPSI0ODguMDMiIHkxPSI1NTAuNjgiIHgxPSI3NDQuOTYiLz4mI3hhOyYjeGE7PGxpbmUgc3R5bGU9InN0cm9rZS13aWR0aDo1Ljc2O3N0cm9rZTpyZ2IoMTc4LDE3OCwxNzgpIiB5Mj0iNDY2Ljc5IiB4Mj0iMTE2MC45NyIgeTE9IjY0My4xOCIgeDE9IjEyODQuMjQiLz4mI3hhOyYjeGE7PGxpbmUgc3R5bGU9InN0cm9rZS13aWR0aDo1LjczO3N0cm9rZTpyZ2IoMTc4LDE3OCwxNzgpIiB5Mj0iNTk0Ljc4IiB4Mj0iOTQ2LjcyIiB5MT0iNDIwLjAwIiB4MT0iMTQxMi4zMiIvPiYjeGE7JiN4YTs8bGluZSBzdHlsZT0ic3Ryb2tlLXdpZHRoOjUuNjk7c3Ryb2tlOnJnYigxNzgsMTc4LDE3OCkiIHkyPSI0MjkuMTQiIHgyPSI4MTguNDQiIHkxPSIzNzkuNjciIHgxPSIxMTQ4LjQ4Ii8+JiN4YTsmI3hhOzxsaW5lIHN0eWxlPSJzdHJva2Utd2lkdGg6NS42NDtzdHJva2U6cmdiKDE3OCwxNzgsMTc4KSIgeTI9IjU4Ny4yNSIgeDI9IjExMzkuNzUiIHkxPSIzNzkuNjciIHgxPSIxMTQ4LjQ4Ii8+JiN4YTsmI3hhOzxsaW5lIHN0eWxlPSJzdHJva2Utd2lkdGg6NS41NztzdHJva2U6cmdiKDE3OCwxNzgsMTc4KSIgeTI9IjM0Mi4wMiIgeDI9IjU0My4yMCIgeTE9IjU5NC43OCIgeDE9Ijk0Ni43MiIvPiYjeGE7JiN4YTs8bGluZSBzdHlsZT0ic3Ryb2tlLXdpZHRoOjUuNTI7c3Ryb2tlOnJnYigxNzgsMTc4LDE3OCkiIHkyPSIxNzMuMTYiIHgyPSI0ODguMDMiIHkxPSI0MjkuMTQiIHgxPSI4MTguNDQiLz4mI3hhOyYjeGE7PGxpbmUgc3R5bGU9InN0cm9rZS13aWR0aDo1LjUxO3N0cm9rZTpyZ2IoMTc4LDE3OCwxNzgpIiB5Mj0iNzk4LjAwIiB4Mj0iOTQ2LjcyIiB5MT0iNzYwLjQxIiB4MT0iMTE0OC40OCIvPiYjeGE7JiN4YTs8bGluZSBzdHlsZT0ic3Ryb2tlLXdpZHRoOjUuNTA7c3Ryb2tlOnJnYigxNzgsMTc4LDE3OCkiIHkyPSI1NTAuNjgiIHgyPSI3NDQuOTYiIHkxPSIzMTcuMjkiIHgxPSI4MDcuMDQiLz4mI3hhOyYjeGE7PGxpbmUgc3R5bGU9InN0cm9rZS13aWR0aDo1LjUwO3N0cm9rZTpyZ2IoMTc4LDE3OCwxNzgpIiB5Mj0iNzk4LjAwIiB4Mj0iOTQ2LjcyIiB5MT0iNjQzLjE4IiB4MT0iMTI4NC4yNCIvPiYjeGE7JiN4YTs8bGluZSBzdHlsZT0ic3Ryb2tlLXdpZHRoOjUuNDY7c3Ryb2tlOnJnYigxNzgsMTc4LDE3OCkiIHkyPSI2MjQuODkiIHgyPSI4NjkuMTIiIHkxPSI2ODQuMDUiIHgxPSIxMTU4Ljk1Ii8+JiN4YTsmI3hhOzxsaW5lIHN0eWxlPSJzdHJva2Utd2lkdGg6NS40MTtzdHJva2U6cmdiKDE3OCwxNzgsMTc4KSIgeTI9Ijc2MC40MSIgeDI9IjExNDguNDgiIHkxPSI0MjAuMDAiIHgxPSIxNDEyLjMyIi8+JiN4YTsmI3hhOzxsaW5lIHN0eWxlPSJzdHJva2Utd2lkdGg6NS4zNjtzdHJva2U6cmdiKDE3OCwxNzgsMTc4KSIgeTI9IjQyOS4xNCIgeDI9IjgxOC40NCIgeTE9IjcwNC40OCIgeDE9IjEwNzAuODgiLz4mI3hhOyYjeGE7PGxpbmUgc3R5bGU9InN0cm9rZS13aWR0aDo1LjM2O3N0cm9rZTpyZ2IoMTc4LDE3OCwxNzgpIiB5Mj0iNTg3LjI1IiB4Mj0iMTEzOS43NSIgeTE9IjQ2Ni43OSIgeDE9IjExNjAuOTciLz4mI3hhOyYjeGE7PGxpbmUgc3R5bGU9InN0cm9rZS13aWR0aDo1LjM1O3N0cm9rZTpyZ2IoMTc4LDE3OCwxNzgpIiB5Mj0iMzY0LjYxIiB4Mj0iMTI3Mi42NCIgeTE9IjQyMC4wMCIgeDE9IjE0MTIuMzIiLz4mI3hhOyYjeGE7PGxpbmUgc3R5bGU9InN0cm9rZS13aWR0aDo1LjM0O3N0cm9rZTpyZ2IoMTc4LDE3OCwxNzgpIiB5Mj0iNzk4LjAwIiB4Mj0iODA3LjA0IiB5MT0iMzc5LjY3IiB4MT0iMTE0OC40OCIvPiYjeGE7JiN4YTs8bGluZSBzdHlsZT0ic3Ryb2tlLXdpZHRoOjUuMzI7c3Ryb2tlOnJnYigxNzgsMTc4LDE3OCkiIHkyPSI1NjUuNzQiIHgyPSI0MDMuNTIiIHkxPSIzNzkuNjciIHgxPSIxMTQ4LjQ4Ii8+JiN4YTsmI3hhOzxsaW5lIHN0eWxlPSJzdHJva2Utd2lkdGg6NS4yMjtzdHJva2U6cmdiKDE5MSwxOTEsMTkxKSIgeTI9IjY4NC4wNSIgeDI9IjExNTguOTUiIHkxPSI1NDYuMDAiIHgxPSIxMjcyLjY0Ii8+JiN4YTsmI3hhOzxsaW5lIHN0eWxlPSJzdHJva2Utd2lkdGg6NS4yMDtzdHJva2U6cmdiKDE5MSwxOTEsMTkxKSIgeTI9IjcwNC40OCIgeDI9IjEwNzAuODgiIHkxPSI0NjYuNzkiIHgxPSIxMTYwLjk3Ii8+JiN4YTsmI3hhOzxsaW5lIHN0eWxlPSJzdHJva2Utd2lkdGg6NS4xNztzdHJva2U6cmdiKDE5MSwxOTEsMTkxKSIgeTI9IjQ0Ny40MyIgeDI9IjQ2Ni44MSIgeTE9IjQyOS4xNCIgeDE9IjgxOC40NCIvPiYjeGE7JiN4YTs8bGluZSBzdHlsZT0ic3Ryb2tlLXdpZHRoOjUuMTY7c3Ryb2tlOnJnYigxOTEsMTkxLDE5MSkiIHkyPSI2NjguOTkiIHgyPSI2MDUuMjgiIHkxPSI3OTguMDAiIHgxPSI5NDYuNzIiLz4mI3hhOyYjeGE7PGxpbmUgc3R5bGU9InN0cm9rZS13aWR0aDo1LjEyO3N0cm9rZTpyZ2IoMTkxLDE5MSwxOTEpIiB5Mj0iNDI5LjE0IiB4Mj0iODE4LjQ0IiB5MT0iMzE3LjI5IiB4MT0iODA3LjA0Ii8+JiN4YTsmI3hhOzxsaW5lIHN0eWxlPSJzdHJva2Utd2lkdGg6NS4xMDtzdHJva2U6cmdiKDE5MSwxOTEsMTkxKSIgeTI9IjQyOS4xNCIgeDI9IjgxOC40NCIgeTE9IjU0Ni4wMCIgeDE9IjEyNzIuNjQiLz4mI3hhOyYjeGE7PGxpbmUgc3R5bGU9InN0cm9rZS13aWR0aDo1LjA4O3N0cm9rZTpyZ2IoMTkxLDE5MSwxOTEpIiB5Mj0iNzk4LjAwIiB4Mj0iOTQ2LjcyIiB5MT0iNzA0LjQ4IiB4MT0iMTA3MC44OCIvPiYjeGE7JiN4YTs8bGluZSBzdHlsZT0ic3Ryb2tlLXdpZHRoOjUuMDc7c3Ryb2tlOnJnYigxOTEsMTkxLDE5MSkiIHkyPSI0MjkuMTQiIHgyPSI4MTguNDQiIHkxPSI0MjEuNjEiIHgxPSIxMjEwLjU2Ii8+JiN4YTsmI3hhOzxsaW5lIHN0eWxlPSJzdHJva2Utd2lkdGg6NS4wNDtzdHJva2U6cmdiKDE5MSwxOTEsMTkxKSIgeTI9IjM0Mi4wMiIgeDI9IjU0My4yMCIgeTE9Ijc5OC4wMCIgeDE9Ijk0Ni43MiIvPiYjeGE7JiN4YTs8bGluZSBzdHlsZT0ic3Ryb2tlLXdpZHRoOjQuOTc7c3Ryb2tlOnJnYigxOTEsMTkxLDE5MSkiIHkyPSI0MjkuMTQiIHgyPSI4MTguNDQiIHkxPSI0MjAuMDAiIHgxPSIxNDEyLjMyIi8+JiN4YTsmI3hhOzxsaW5lIHN0eWxlPSJzdHJva2Utd2lkdGg6NC44NztzdHJva2U6cmdiKDE5MSwxOTEsMTkxKSIgeTI9IjY2OC45OSIgeDI9IjYwNS4yOCIgeTE9IjM3OS42NyIgeDE9IjExNDguNDgiLz4mI3hhOyYjeGE7PGxpbmUgc3R5bGU9InN0cm9rZS13aWR0aDo0Ljg1O3N0cm9rZTpyZ2IoMTkxLDE5MSwxOTEpIiB5Mj0iNjUzLjkzIiB4Mj0iNzcuNjAiIHkxPSI2ODIuOTciIHgxPSIzNDEuNDQiLz4mI3hhOyYjeGE7PGxpbmUgc3R5bGU9InN0cm9rZS13aWR0aDo0LjgyO3N0cm9rZTpyZ2IoMTkxLDE5MSwxOTEpIiB5Mj0iMTQ2LjI3IiB4Mj0iNzQ0Ljk2IiB5MT0iMTE0LjAxIiB4MT0iOTQ2LjcyIi8+JiN4YTsmI3hhOzxsaW5lIHN0eWxlPSJzdHJva2Utd2lkdGg6NC42NDtzdHJva2U6cmdiKDE5MSwxOTEsMTkxKSIgeTI9IjQ0Ny40MyIgeDI9IjQ2Ni44MSIgeTE9IjU0Ni4wMCIgeDE9IjEyNzIuNjQiLz4mI3hhOyYjeGE7PGxpbmUgc3R5bGU9InN0cm9rZS13aWR0aDo0LjU5O3N0cm9rZTpyZ2IoMTkxLDE5MSwxOTEpIiB5Mj0iNzYwLjQxIiB4Mj0iMTE0OC40OCIgeTE9IjY0My4xOCIgeDE9IjEyODQuMjQiLz4mI3hhOyYjeGE7PGxpbmUgc3R5bGU9InN0cm9rZS13aWR0aDo0LjUzO3N0cm9rZTpyZ2IoMTkxLDE5MSwxOTEpIiB5Mj0iMzQyLjAyIiB4Mj0iNTQzLjIwIiB5MT0iMzc5LjY3IiB4MT0iMTE0OC40OCIvPiYjeGE7JiN4YTs8bGluZSBzdHlsZT0ic3Ryb2tlLXdpZHRoOjQuNTM7c3Ryb2tlOnJnYigxOTEsMTkxLDE5MSkiIHkyPSI1NjUuNzQiIHgyPSI0MDMuNTIiIHkxPSI3NjAuNDEiIHgxPSIxMTQ4LjQ4Ii8+JiN4YTsmI3hhOzxsaW5lIHN0eWxlPSJzdHJva2Utd2lkdGg6NC40NTtzdHJva2U6cmdiKDE5MSwxOTEsMTkxKSIgeTI9IjU1MC42OCIgeDI9Ijc0NC45NiIgeTE9IjQyMC4wMCIgeDE9IjE0MTIuMzIiLz4mI3hhOyYjeGE7PGxpbmUgc3R5bGU9InN0cm9rZS13aWR0aDo0LjQ1O3N0cm9rZTpyZ2IoMTkxLDE5MSwxOTEpIiB5Mj0iNzA0LjQ4IiB4Mj0iMTA3MC44OCIgeTE9IjY0My4xOCIgeDE9IjEyODQuMjQiLz4mI3hhOyYjeGE7PGxpbmUgc3R5bGU9InN0cm9rZS13aWR0aDo0LjM2O3N0cm9rZTpyZ2IoMjA0LDIwNCwyMDQpIiB5Mj0iNjg0LjA1IiB4Mj0iMTE1OC45NSIgeTE9IjQyMC4wMCIgeDE9IjE0MTIuMzIiLz4mI3hhOyYjeGE7PGxpbmUgc3R5bGU9InN0cm9rZS13aWR0aDo0LjM0O3N0cm9rZTpyZ2IoMjA0LDIwNCwyMDQpIiB5Mj0iMzQyLjAyIiB4Mj0iNTQzLjIwIiB5MT0iNjY4Ljk5IiB4MT0iNjA1LjI4Ii8+JiN4YTsmI3hhOzxsaW5lIHN0eWxlPSJzdHJva2Utd2lkdGg6NC4zMztzdHJva2U6cmdiKDIwNCwyMDQsMjA0KSIgeTI9IjQ2Ni43OSIgeDI9IjExNjAuOTciIHkxPSI1NDYuMDAiIHgxPSIxMjcyLjY0Ii8+JiN4YTsmI3hhOzxsaW5lIHN0eWxlPSJzdHJva2Utd2lkdGg6NC4zMTtzdHJva2U6cmdiKDIwNCwyMDQsMjA0KSIgeTI9Ijc5OC4wMCIgeDI9IjgwNy4wNCIgeTE9IjcwNC40OCIgeDE9IjEwNzAuODgiLz4mI3hhOyYjeGE7PGxpbmUgc3R5bGU9InN0cm9rZS13aWR0aDo0LjMwO3N0cm9rZTpyZ2IoMjA0LDIwNCwyMDQpIiB5Mj0iNTY1Ljc0IiB4Mj0iNDAzLjUyIiB5MT0iNzA1LjU2IiB4MT0iNDgxLjEyIi8+JiN4YTsmI3hhOzxsaW5lIHN0eWxlPSJzdHJva2Utd2lkdGg6NC4yNTtzdHJva2U6cmdiKDIwNCwyMDQsMjA0KSIgeTI9Ijc2MC40MSIgeDI9IjExNDguNDgiIHkxPSI2ODQuMDUiIHgxPSIxMTU4Ljk1Ii8+JiN4YTsmI3hhOzxsaW5lIHN0eWxlPSJzdHJva2Utd2lkdGg6NC4yNDtzdHJva2U6cmdiKDIwNCwyMDQsMjA0KSIgeTI9Ijc5OC4wMCIgeDI9Ijk0Ni43MiIgeTE9IjQyMC4wMCIgeDE9IjE0MTIuMzIiLz4mI3hhOyYjeGE7PGxpbmUgc3R5bGU9InN0cm9rZS13aWR0aDo0LjIzO3N0cm9rZTpyZ2IoMjA0LDIwNCwyMDQpIiB5Mj0iNDIxLjYxIiB4Mj0iMTIxMC41NiIgeTE9IjM2NC42MSIgeDE9IjEyNzIuNjQiLz4mI3hhOyYjeGE7PGxpbmUgc3R5bGU9InN0cm9rZS13aWR0aDo0LjIzO3N0cm9rZTpyZ2IoMjA0LDIwNCwyMDQpIiB5Mj0iMzQyLjAyIiB4Mj0iNTQzLjIwIiB5MT0iNTUwLjY4IiB4MT0iNzQ0Ljk2Ii8+JiN4YTsmI3hhOzxsaW5lIHN0eWxlPSJzdHJva2Utd2lkdGg6NC4yMjtzdHJva2U6cmdiKDIwNCwyMDQsMjA0KSIgeTI9IjM0Mi4wMiIgeDI9IjU0My4yMCIgeTE9IjQyOS4xNCIgeDE9IjgxOC40NCIvPiYjeGE7JiN4YTs8bGluZSBzdHlsZT0ic3Ryb2tlLXdpZHRoOjQuMTY7c3Ryb2tlOnJnYigyMDQsMjA0LDIwNCkiIHkyPSIzNzkuNjciIHgyPSIxMTQ4LjQ4IiB5MT0iNjg0LjA1IiB4MT0iMTE1OC45NSIvPiYjeGE7JiN4YTs8bGluZSBzdHlsZT0ic3Ryb2tlLXdpZHRoOjQuMTU7c3Ryb2tlOnJnYigyMDQsMjA0LDIwNCkiIHkyPSI0MjkuMTQiIHgyPSI4MTguNDQiIHkxPSI3NjAuNDEiIHgxPSIxMTQ4LjQ4Ii8+JiN4YTsmI3hhOzxsaW5lIHN0eWxlPSJzdHJva2Utd2lkdGg6NC4xMjtzdHJva2U6cmdiKDIwNCwyMDQsMjA0KSIgeTI9Ijc5OC4wMCIgeDI9IjgwNy4wNCIgeTE9IjMxNy4yOSIgeDE9IjgwNy4wNCIvPiYjeGE7JiN4YTs8bGluZSBzdHlsZT0ic3Ryb2tlLXdpZHRoOjQuMTE7c3Ryb2tlOnJnYigyMDQsMjA0LDIwNCkiIHkyPSIxNzMuMTYiIHgyPSI0ODguMDMiIHkxPSIzNzkuNjciIHgxPSIxMTQ4LjQ4Ii8+JiN4YTsmI3hhOzxsaW5lIHN0eWxlPSJzdHJva2Utd2lkdGg6NC4xMTtzdHJva2U6cmdiKDIwNCwyMDQsMjA0KSIgeTI9IjU2NS43NCIgeDI9IjQwMy41MiIgeTE9IjY0My4xOCIgeDE9IjEyODQuMjQiLz4mI3hhOyYjeGE7PGxpbmUgc3R5bGU9InN0cm9rZS13aWR0aDo0LjA5O3N0cm9rZTpyZ2IoMjA0LDIwNCwyMDQpIiB5Mj0iNTk0Ljc4IiB4Mj0iOTQ2LjcyIiB5MT0iNjg0LjA1IiB4MT0iMTE1OC45NSIvPiYjeGE7JiN4YTs8bGluZSBzdHlsZT0ic3Ryb2tlLXdpZHRoOjQuMDQ7c3Ryb2tlOnJnYigyMDQsMjA0LDIwNCkiIHkyPSIxNzMuMTYiIHgyPSI0ODguMDMiIHkxPSI1OTQuNzgiIHgxPSI5NDYuNzIiLz4mI3hhOyYjeGE7PGxpbmUgc3R5bGU9InN0cm9rZS13aWR0aDo0LjAwO3N0cm9rZTpyZ2IoMjA0LDIwNCwyMDQpIiB5Mj0iNzk4LjAwIiB4Mj0iODA3LjA0IiB5MT0iNDIwLjAwIiB4MT0iMTQxMi4zMiIvPiYjeGE7JiN4YTs8bGluZSBzdHlsZT0ic3Ryb2tlLXdpZHRoOjQuMDA7c3Ryb2tlOnJnYigyMDQsMjA0LDIwNCkiIHkyPSI0NzMuMjQiIHgyPSIxMDcwLjg4IiB5MT0iNDY2Ljc5IiB4MT0iMTE2MC45NyIvPiYjeGE7JiN4YTs8bGluZSBzdHlsZT0ic3Ryb2tlLXdpZHRoOjMuOTk7c3Ryb2tlOnJnYigyMDQsMjA0LDIwNCkiIHkyPSI3MDUuNTYiIHgyPSI0ODEuMTIiIHkxPSIxNzMuMTYiIHgxPSI0ODguMDMiLz4mI3hhOyYjeGE7PGxpbmUgc3R5bGU9InN0cm9rZS13aWR0aDozLjk2O3N0cm9rZTpyZ2IoMjA0LDIwNCwyMDQpIiB5Mj0iMzQyLjAyIiB4Mj0iNTQzLjIwIiB5MT0iNjI0Ljg5IiB4MT0iODY5LjEyIi8+JiN4YTsmI3hhOzxsaW5lIHN0eWxlPSJzdHJva2Utd2lkdGg6My45MztzdHJva2U6cmdiKDIwNCwyMDQsMjA0KSIgeTI9IjY2OC45OSIgeDI9IjYwNS4yOCIgeTE9IjcwNC40OCIgeDE9IjEwNzAuODgiLz4mI3hhOyYjeGE7PGxpbmUgc3R5bGU9InN0cm9rZS13aWR0aDozLjkzO3N0cm9rZTpyZ2IoMjA0LDIwNCwyMDQpIiB5Mj0iNTg3LjI1IiB4Mj0iMTEzOS43NSIgeTE9IjU0Ni4wMCIgeDE9IjEyNzIuNjQiLz4mI3hhOyYjeGE7PGxpbmUgc3R5bGU9InN0cm9rZS13aWR0aDozLjg1O3N0cm9rZTpyZ2IoMjA0LDIwNCwyMDQpIiB5Mj0iNzYwLjQxIiB4Mj0iMTE0OC40OCIgeTE9IjQyMS42MSIgeDE9IjEyMTAuNTYiLz4mI3hhOyYjeGE7PGxpbmUgc3R5bGU9InN0cm9rZS13aWR0aDozLjg0O3N0cm9rZTpyZ2IoMjA0LDIwNCwyMDQpIiB5Mj0iNTg3LjI1IiB4Mj0iMTEzOS43NSIgeTE9IjQyMC4wMCIgeDE9IjE0MTIuMzIiLz4mI3hhOyYjeGE7PGxpbmUgc3R5bGU9InN0cm9rZS13aWR0aDozLjgyO3N0cm9rZTpyZ2IoMjA0LDIwNCwyMDQpIiB5Mj0iNzk4LjAwIiB4Mj0iODA3LjA0IiB5MT0iNTQ2LjAwIiB4MT0iMTI3Mi42NCIvPiYjeGE7JiN4YTs8bGluZSBzdHlsZT0ic3Ryb2tlLXdpZHRoOjMuNzk7c3Ryb2tlOnJnYigyMDQsMjA0LDIwNCkiIHkyPSIzNDIuMDIiIHgyPSI1NDMuMjAiIHkxPSI1NDYuMDAiIHgxPSIxMjcyLjY0Ii8+JiN4YTsmI3hhOzxsaW5lIHN0eWxlPSJzdHJva2Utd2lkdGg6My43ODtzdHJva2U6cmdiKDIwNCwyMDQsMjA0KSIgeTI9IjU1MC42OCIgeDI9Ijc0NC45NiIgeTE9IjY0My4xOCIgeDE9IjEyODQuMjQiLz4mI3hhOyYjeGE7PGxpbmUgc3R5bGU9InN0cm9rZS13aWR0aDozLjcyO3N0cm9rZTpyZ2IoMjA0LDIwNCwyMDQpIiB5Mj0iNDI5LjE0IiB4Mj0iODE4LjQ0IiB5MT0iNjg0LjA1IiB4MT0iMTE1OC45NSIvPiYjeGE7JiN4YTs8bGluZSBzdHlsZT0ic3Ryb2tlLXdpZHRoOjMuNjI7c3Ryb2tlOnJnYigyMDQsMjA0LDIwNCkiIHkyPSI3OTguMDAiIHgyPSI4MDcuMDQiIHkxPSI0NjYuNzkiIHgxPSIxMTYwLjk3Ii8+JiN4YTsmI3hhOyYjeGE7PGVsbGlwc2Ugc3R5bGU9ImZpbGw6dXJsKCNDeWFuKTtzdHJva2U6cmdiKDAsMCwwKTtzdHJva2Utd2lkdGg6MC41MDsiIHJ5PSIxMi4yNCIgcng9IjEyLjI0IiBjeT0iNDIuMDAiIGN4PSIxNDc0LjQwIi8+JiN4YTs8dGV4dCBzdHlsZT0iZm9udC1mYW1pbHk6QXJpYWw7Zm9udC13ZWlnaHQ6IGJvbGQ7Zm9udC1zaXplOjE1cHg7ZmlsbDpyZ2IoMCwwLDApO3RleHQtYW5jaG9yOm1pZGRsZTsiIHk9IjQ3LjAwIiB4PSIxNDc0LjQwIj4xPC90ZXh0PiYjeGE7JiN4YTs8ZWxsaXBzZSBzdHlsZT0iZmlsbDp1cmwoI0N5YW4pO3N0cm9rZTpyZ2IoMCwwLDApO3N0cm9rZS13aWR0aDowLjUwOyIgcnk9IjEwLjYxIiByeD0iMTAuNjEiIGN5PSIyMDIuMjAiIGN4PSIxNDc0LjQwIi8+JiN4YTs8dGV4dCBzdHlsZT0iZm9udC1mYW1pbHk6QXJpYWw7Zm9udC13ZWlnaHQ6IGJvbGQ7Zm9udC1zaXplOjE1cHg7ZmlsbDpyZ2IoMCwwLDApO3RleHQtYW5jaG9yOm1pZGRsZTsiIHk9IjIwNy4yMCIgeD0iMTQ3NC40MCI+MjwvdGV4dD4mI3hhOyYjeGE7PGVsbGlwc2Ugc3R5bGU9ImZpbGw6dXJsKCNDeWFuKTtzdHJva2U6cmdiKDAsMCwwKTtzdHJva2Utd2lkdGg6MC41MDsiIHJ5PSIxOC4zMSIgcng9IjE4LjMxIiBjeT0iMTI1Ljg0IiBjeD0iMTQ3NC40MCIvPiYjeGE7PHRleHQgc3R5bGU9ImZvbnQtZmFtaWx5OkFyaWFsO2ZvbnQtd2VpZ2h0OiBib2xkO2ZvbnQtc2l6ZToxNXB4O2ZpbGw6cmdiKDAsMCwwKTt0ZXh0LWFuY2hvcjptaWRkbGU7IiB5PSIxMzAuODQiIHg9IjE0NzQuNDAiPjM8L3RleHQ+JiN4YTsmI3hhOzxlbGxpcHNlIHN0eWxlPSJmaWxsOnVybCgjWWVsbG93KTtzdHJva2U6cmdiKDAsMCwwKTtzdHJva2Utd2lkdGg6MC41MDsiIHJ5PSIxNS41NyIgcng9IjE1LjU3IiBjeT0iNTU4LjIxIiBjeD0iMTQxMi4zMiIvPiYjeGE7PHRleHQgc3R5bGU9ImZvbnQtZmFtaWx5OkFyaWFsO2ZvbnQtd2VpZ2h0OiBib2xkO2ZvbnQtc2l6ZToxNXB4O2ZpbGw6cmdiKDAsMCwwKTt0ZXh0LWFuY2hvcjptaWRkbGU7IiB5PSI1NjMuMjEiIHg9IjE0MTIuMzIiPjQ8L3RleHQ+JiN4YTsmI3hhOzxlbGxpcHNlIHN0eWxlPSJmaWxsOnVybCgjWWVsbG93KTtzdHJva2U6cmdiKDAsMCwwKTtzdHJva2Utd2lkdGg6MC41MDsiIHJ5PSIxMC42MSIgcng9IjEwLjYxIiBjeT0iNDIwLjAwIiBjeD0iMTQxMi4zMiIvPiYjeGE7PHRleHQgc3R5bGU9ImZvbnQtZmFtaWx5OkFyaWFsO2ZvbnQtd2VpZ2h0OiBib2xkO2ZvbnQtc2l6ZToxNXB4O2ZpbGw6cmdiKDAsMCwwKTt0ZXh0LWFuY2hvcjptaWRkbGU7IiB5PSI0MjUuMDAiIHg9IjE0MTIuMzIiPjU8L3RleHQ+JiN4YTsmI3hhOzxlbGxpcHNlIHN0eWxlPSJmaWxsOnVybCgjQ3lhbik7c3Ryb2tlOnJnYigwLDAsMCk7c3Ryb2tlLXdpZHRoOjAuNTA7IiByeT0iMTAuNjEiIHJ4PSIxMC42MSIgY3k9IjEyMS41NCIgY3g9IjE0MTIuMzIiLz4mI3hhOzx0ZXh0IHN0eWxlPSJmb250LWZhbWlseTpBcmlhbDtmb250LXdlaWdodDogYm9sZDtmb250LXNpemU6MTVweDtmaWxsOnJnYigwLDAsMCk7dGV4dC1hbmNob3I6bWlkZGxlOyIgeT0iMTI2LjU0IiB4PSIxNDEyLjMyIj42PC90ZXh0PiYjeGE7JiN4YTs8ZWxsaXBzZSBzdHlsZT0iZmlsbDp1cmwoI0N5YW4pO3N0cm9rZTpyZ2IoMCwwLDApO3N0cm9rZS13aWR0aDowLjUwOyIgcnk9IjYuMjAiIHJ4PSI2LjIwIiBjeT0iNDIuMDAiIGN4PSIxMzM0LjcyIi8+JiN4YTs8dGV4dCBzdHlsZT0iZm9udC1mYW1pbHk6QXJpYWw7Zm9udC13ZWlnaHQ6IGJvbGQ7Zm9udC1zaXplOjE1cHg7ZmlsbDpyZ2IoMCwwLDApO3RleHQtYW5jaG9yOm1pZGRsZTsiIHk9IjQ3LjAwIiB4PSIxMzM0LjcyIj43PC90ZXh0PiYjeGE7JiN4YTs8ZWxsaXBzZSBzdHlsZT0iZmlsbDp1cmwoI0N5YW4pO3N0cm9rZTpyZ2IoMCwwLDApO3N0cm9rZS13aWR0aDowLjUwOyIgcnk9IjcuNTUiIHJ4PSI3LjU1IiBjeT0iMTE1LjA4IiBjeD0iMTMzNC43MiIvPiYjeGE7PHRleHQgc3R5bGU9ImZvbnQtZmFtaWx5OkFyaWFsO2ZvbnQtd2VpZ2h0OiBib2xkO2ZvbnQtc2l6ZToxNXB4O2ZpbGw6cmdiKDAsMCwwKTt0ZXh0LWFuY2hvcjptaWRkbGU7IiB5PSIxMjAuMDgiIHg9IjEzMzQuNzIiPjg8L3RleHQ+JiN4YTsmI3hhOzxlbGxpcHNlIHN0eWxlPSJmaWxsOnVybCgjWWVsbG93KTtzdHJva2U6cmdiKDAsMCwwKTtzdHJva2Utd2lkdGg6MC41MDsiIHJ5PSIxNS41NyIgcng9IjE1LjU3IiBjeT0iNjQzLjE4IiBjeD0iMTI4NC4yNCIvPiYjeGE7PHRleHQgc3R5bGU9ImZvbnQtZmFtaWx5OkFyaWFsO2ZvbnQtd2VpZ2h0OiBib2xkO2ZvbnQtc2l6ZToxNXB4O2ZpbGw6cmdiKDAsMCwwKTt0ZXh0LWFuY2hvcjptaWRkbGU7IiB5PSI2NDguMTgiIHg9IjEyODQuMjQiPjk8L3RleHQ+JiN4YTsmI3hhOzxlbGxpcHNlIHN0eWxlPSJmaWxsOnVybCgjQ3lhbik7c3Ryb2tlOnJnYigwLDAsMCk7c3Ryb2tlLXdpZHRoOjAuNTA7IiByeT0iNy41NSIgcng9IjcuNTUiIGN5PSI0OC40MCIgY3g9IjEyNzIuNjQiLz4mI3hhOzx0ZXh0IHN0eWxlPSJmb250LWZhbWlseTpBcmlhbDtmb250LXdlaWdodDogYm9sZDtmb250LXNpemU6MTVweDtmaWxsOnJnYigwLDAsMCk7dGV4dC1hbmNob3I6bWlkZGxlOyIgeT0iNTMuNDAiIHg9IjEyNzIuNjQiPjEwPC90ZXh0PiYjeGE7JiN4YTs8ZWxsaXBzZSBzdHlsZT0iZmlsbDp1cmwoI1llbGxvdyk7c3Ryb2tlOnJnYigwLDAsMCk7c3Ryb2tlLXdpZHRoOjAuNTA7IiByeT0iMTQuMzMiIHJ4PSIxNC4zMyIgY3k9IjU0Ni4wMCIgY3g9IjEyNzIuNjQiLz4mI3hhOzx0ZXh0IHN0eWxlPSJmb250LWZhbWlseTpBcmlhbDtmb250LXdlaWdodDogYm9sZDtmb250LXNpemU6MTVweDtmaWxsOnJnYigwLDAsMCk7dGV4dC1hbmNob3I6bWlkZGxlOyIgeT0iNTUxLjAwIiB4PSIxMjcyLjY0Ij4xMTwvdGV4dD4mI3hhOyYjeGE7PGVsbGlwc2Ugc3R5bGU9ImZpbGw6dXJsKCNZZWxsb3cpO3N0cm9rZTpyZ2IoMCwwLDApO3N0cm9rZS13aWR0aDowLjUwOyIgcnk9IjEzLjY3IiByeD0iMTMuNjciIGN5PSIzNjQuNjEiIGN4PSIxMjcyLjY0Ii8+JiN4YTs8dGV4dCBzdHlsZT0iZm9udC1mYW1pbHk6QXJpYWw7Zm9udC13ZWlnaHQ6IGJvbGQ7Zm9udC1zaXplOjE1cHg7ZmlsbDpyZ2IoMCwwLDApO3RleHQtYW5jaG9yOm1pZGRsZTsiIHk9IjM2OS42MSIgeD0iMTI3Mi42NCI+MTI8L3RleHQ+JiN4YTsmI3hhOzxlbGxpcHNlIHN0eWxlPSJmaWxsOnVybCgjWWVsbG93KTtzdHJva2U6cmdiKDAsMCwwKTtzdHJva2Utd2lkdGg6MC41MDsiIHJ5PSIxOC4zMSIgcng9IjE4LjMxIiBjeT0iNDIxLjYxIiBjeD0iMTIxMC41NiIvPiYjeGE7PHRleHQgc3R5bGU9ImZvbnQtZmFtaWx5OkFyaWFsO2ZvbnQtd2VpZ2h0OiBib2xkO2ZvbnQtc2l6ZToxNXB4O2ZpbGw6cmdiKDAsMCwwKTt0ZXh0LWFuY2hvcjptaWRkbGU7IiB5PSI0MjYuNjEiIHg9IjEyMTAuNTYiPjEzPC90ZXh0PiYjeGE7JiN4YTs8ZWxsaXBzZSBzdHlsZT0iZmlsbDp1cmwoI1llbGxvdyk7c3Ryb2tlOnJnYigwLDAsMCk7c3Ryb2tlLXdpZHRoOjAuNTA7IiByeT0iMTQuMzMiIHJ4PSIxNC4zMyIgY3k9IjY4NC4wNSIgY3g9IjExNTguOTUiLz4mI3hhOzx0ZXh0IHN0eWxlPSJmb250LWZhbWlseTpBcmlhbDtmb250LXdlaWdodDogYm9sZDtmb250LXNpemU6MTVweDtmaWxsOnJnYigwLDAsMCk7dGV4dC1hbmNob3I6bWlkZGxlOyIgeT0iNjg5LjA1IiB4PSIxMTU4Ljk1Ij4xNDwvdGV4dD4mI3hhOyYjeGE7PGVsbGlwc2Ugc3R5bGU9ImZpbGw6dXJsKCNZZWxsb3cpO3N0cm9rZTpyZ2IoMCwwLDApO3N0cm9rZS13aWR0aDowLjUwOyIgcnk9IjE5Ljc3IiByeD0iMTkuNzciIGN5PSIzNzkuNjciIGN4PSIxMTQ4LjQ4Ii8+JiN4YTs8dGV4dCBzdHlsZT0iZm9udC1mYW1pbHk6QXJpYWw7Zm9udC13ZWlnaHQ6IGJvbGQ7Zm9udC1zaXplOjE1cHg7ZmlsbDpyZ2IoMCwwLDApO3RleHQtYW5jaG9yOm1pZGRsZTsiIHk9IjM4NC42NyIgeD0iMTE0OC40OCI+MTU8L3RleHQ+JiN4YTsmI3hhOzxlbGxpcHNlIHN0eWxlPSJmaWxsOnVybCgjWWVsbG93KTtzdHJva2U6cmdiKDAsMCwwKTtzdHJva2Utd2lkdGg6MC41MDsiIHJ5PSIxNy44MCIgcng9IjE3LjgwIiBjeT0iNDY2Ljc5IiBjeD0iMTE2MC45NyIvPiYjeGE7PHRleHQgc3R5bGU9ImZvbnQtZmFtaWx5OkFyaWFsO2ZvbnQtd2VpZ2h0OiBib2xkO2ZvbnQtc2l6ZToxNXB4O2ZpbGw6cmdiKDAsMCwwKTt0ZXh0LWFuY2hvcjptaWRkbGU7IiB5PSI0NzEuNzkiIHg9IjExNjAuOTciPjE2PC90ZXh0PiYjeGE7JiN4YTs8ZWxsaXBzZSBzdHlsZT0iZmlsbDp1cmwoI1llbGxvdyk7c3Ryb2tlOnJnYigwLDAsMCk7c3Ryb2tlLXdpZHRoOjAuNTA7IiByeT0iMTkuNzciIHJ4PSIxOS43NyIgY3k9IjU4Ny4yNSIgY3g9IjExMzkuNzUiLz4mI3hhOzx0ZXh0IHN0eWxlPSJmb250LWZhbWlseTpBcmlhbDtmb250LXdlaWdodDogYm9sZDtmb250LXNpemU6MTVweDtmaWxsOnJnYigwLDAsMCk7dGV4dC1hbmNob3I6bWlkZGxlOyIgeT0iNTkyLjI1IiB4PSIxMTM5Ljc1Ij4xNzwvdGV4dD4mI3hhOyYjeGE7PGVsbGlwc2Ugc3R5bGU9ImZpbGw6dXJsKCNZZWxsb3cpO3N0cm9rZTpyZ2IoMCwwLDApO3N0cm9rZS13aWR0aDowLjUwOyIgcnk9IjE5Ljc3IiByeD0iMTkuNzciIGN5PSI3NjAuNDEiIGN4PSIxMTQ4LjQ4Ii8+JiN4YTs8dGV4dCBzdHlsZT0iZm9udC1mYW1pbHk6QXJpYWw7Zm9udC13ZWlnaHQ6IGJvbGQ7Zm9udC1zaXplOjE1cHg7ZmlsbDpyZ2IoMCwwLDApO3RleHQtYW5jaG9yOm1pZGRsZTsiIHk9Ijc2NS40MSIgeD0iMTE0OC40OCI+MTg8L3RleHQ+JiN4YTsmI3hhOzxlbGxpcHNlIHN0eWxlPSJmaWxsOnVybCgjQ3lhbik7c3Ryb2tlOnJnYigwLDAsMCk7c3Ryb2tlLXdpZHRoOjAuNTA7IiByeT0iNi4yMCIgcng9IjYuMjAiIGN5PSI0OC40MCIgY3g9IjExNDguNDgiLz4mI3hhOzx0ZXh0IHN0eWxlPSJmb250LWZhbWlseTpBcmlhbDtmb250LXdlaWdodDogYm9sZDtmb250LXNpemU6MTVweDtmaWxsOnJnYigwLDAsMCk7dGV4dC1hbmNob3I6bWlkZGxlOyIgeT0iNTMuNDAiIHg9IjExNDguNDgiPjE5PC90ZXh0PiYjeGE7JiN4YTs8ZWxsaXBzZSBzdHlsZT0iZmlsbDp1cmwoI0N5YW4pO3N0cm9rZTpyZ2IoMCwwLDApO3N0cm9rZS13aWR0aDowLjUwOyIgcnk9IjcuNTUiIHJ4PSI3LjU1IiBjeT0iOTMuNTciIGN4PSIxMTQ4LjQ4Ii8+JiN4YTs8dGV4dCBzdHlsZT0iZm9udC1mYW1pbHk6QXJpYWw7Zm9udC13ZWlnaHQ6IGJvbGQ7Zm9udC1zaXplOjE1cHg7ZmlsbDpyZ2IoMCwwLDApO3RleHQtYW5jaG9yOm1pZGRsZTsiIHk9Ijk4LjU3IiB4PSIxMTQ4LjQ4Ij4yMDwvdGV4dD4mI3hhOyYjeGE7PGVsbGlwc2Ugc3R5bGU9ImZpbGw6dXJsKCNZZWxsb3cpO3N0cm9rZTpyZ2IoMCwwLDApO3N0cm9rZS13aWR0aDowLjUwOyIgcnk9IjI0Ljc3IiByeD0iMjQuNzciIGN5PSI3MDQuNDgiIGN4PSIxMDcwLjg4Ii8+JiN4YTs8dGV4dCBzdHlsZT0iZm9udC1mYW1pbHk6QXJpYWw7Zm9udC13ZWlnaHQ6IGJvbGQ7Zm9udC1zaXplOjE1cHg7ZmlsbDpyZ2IoMCwwLDApO3RleHQtYW5jaG9yOm1pZGRsZTsiIHk9IjcwOS40OCIgeD0iMTA3MC44OCI+MjE8L3RleHQ+JiN4YTsmI3hhOzxlbGxpcHNlIHN0eWxlPSJmaWxsOnVybCgjWWVsbG93KTtzdHJva2U6cmdiKDAsMCwwKTtzdHJva2Utd2lkdGg6MC41MDsiIHJ5PSIzMC4xNyIgcng9IjMwLjE3IiBjeT0iNDczLjI0IiBjeD0iMTA3MC44OCIvPiYjeGE7PHRleHQgc3R5bGU9ImZvbnQtZmFtaWx5OkFyaWFsO2ZvbnQtd2VpZ2h0OiBib2xkO2ZvbnQtc2l6ZToxNXB4O2ZpbGw6cmdiKDAsMCwwKTt0ZXh0LWFuY2hvcjptaWRkbGU7IiB5PSI0NzguMjQiIHg9IjEwNzAuODgiPjIyPC90ZXh0PiYjeGE7JiN4YTs8ZWxsaXBzZSBzdHlsZT0iZmlsbDp1cmwoI0N5YW4pO3N0cm9rZTpyZ2IoMCwwLDApO3N0cm9rZS13aWR0aDowLjUwOyIgcnk9IjQ5LjY4IiByeD0iNDkuNjgiIGN5PSIyMDAuMDUiIGN4PSIxMDcwLjg4Ii8+JiN4YTs8dGV4dCBzdHlsZT0iZm9udC1mYW1pbHk6QXJpYWw7Zm9udC13ZWlnaHQ6IGJvbGQ7Zm9udC1zaXplOjE1cHg7ZmlsbDpyZ2IoMCwwLDApO3RleHQtYW5jaG9yOm1pZGRsZTsiIHk9IjIwNS4wNSIgeD0iMTA3MC44OCI+MjM8L3RleHQ+JiN4YTsmI3hhOzxlbGxpcHNlIHN0eWxlPSJmaWxsOnVybCgjQ3lhbik7c3Ryb2tlOnJnYigwLDAsMCk7c3Ryb2tlLXdpZHRoOjAuNTA7IiByeT0iNi4yMCIgcng9IjYuMjAiIGN5PSI1OC4wOCIgY3g9IjEwNzAuODgiLz4mI3hhOzx0ZXh0IHN0eWxlPSJmb250LWZhbWlseTpBcmlhbDtmb250LXdlaWdodDogYm9sZDtmb250LXNpemU6MTVweDtmaWxsOnJnYigwLDAsMCk7dGV4dC1hbmNob3I6bWlkZGxlOyIgeT0iNjMuMDgiIHg9IjEwNzAuODgiPjI0PC90ZXh0PiYjeGE7JiN4YTs8ZWxsaXBzZSBzdHlsZT0iZmlsbDp1cmwoI1llbGxvdyk7c3Ryb2tlOnJnYigwLDAsMCk7c3Ryb2tlLXdpZHRoOjAuNTA7IiByeT0iMTIuMjQiIHJ4PSIxMi4yNCIgY3k9IjU5NC43OCIgY3g9Ijk0Ni43MiIvPiYjeGE7PHRleHQgc3R5bGU9ImZvbnQtZmFtaWx5OkFyaWFsO2ZvbnQtd2VpZ2h0OiBib2xkO2ZvbnQtc2l6ZToxNXB4O2ZpbGw6cmdiKDAsMCwwKTt0ZXh0LWFuY2hvcjptaWRkbGU7IiB5PSI1OTkuNzgiIHg9Ijk0Ni43MiI+MjU8L3RleHQ+JiN4YTsmI3hhOzxlbGxpcHNlIHN0eWxlPSJmaWxsOnVybCgjQ3lhbik7c3Ryb2tlOnJnYigwLDAsMCk7c3Ryb2tlLXdpZHRoOjAuNTA7IiByeT0iMTMuNjciIHJ4PSIxMy42NyIgY3k9IjI1My44MyIgY3g9Ijk0Ni43MiIvPiYjeGE7PHRleHQgc3R5bGU9ImZvbnQtZmFtaWx5OkFyaWFsO2ZvbnQtd2VpZ2h0OiBib2xkO2ZvbnQtc2l6ZToxNXB4O2ZpbGw6cmdiKDAsMCwwKTt0ZXh0LWFuY2hvcjptaWRkbGU7IiB5PSIyNTguODMiIHg9Ijk0Ni43MiI+MjY8L3RleHQ+JiN4YTsmI3hhOzxlbGxpcHNlIHN0eWxlPSJmaWxsOnVybCgjTGltZUdyZWVuKTtzdHJva2U6cmdiKDAsMCwwKTtzdHJva2Utd2lkdGg6MC41MDsiIHJ5PSI2OC4xMSIgcng9IjY4LjExIiBjeT0iMTE0LjAxIiBjeD0iOTQ2LjcyIi8+JiN4YTs8dGV4dCBzdHlsZT0iZm9udC1mYW1pbHk6QXJpYWw7Zm9udC13ZWlnaHQ6IGJvbGQ7Zm9udC1zaXplOjE1cHg7ZmlsbDpyZ2IoMCwwLDApO3RleHQtYW5jaG9yOm1pZGRsZTsiIHk9IjExOS4wMSIgeD0iOTQ2LjcyIj4yNzwvdGV4dD4mI3hhOyYjeGE7PGVsbGlwc2Ugc3R5bGU9ImZpbGw6dXJsKCNZZWxsb3cpO3N0cm9rZTpyZ2IoMCwwLDApO3N0cm9rZS13aWR0aDowLjUwOyIgcnk9IjEyLjI0IiByeD0iMTIuMjQiIGN5PSI3OTguMDAiIGN4PSI5NDYuNzIiLz4mI3hhOzx0ZXh0IHN0eWxlPSJmb250LWZhbWlseTpBcmlhbDtmb250LXdlaWdodDogYm9sZDtmb250LXNpemU6MTVweDtmaWxsOnJnYigwLDAsMCk7dGV4dC1hbmNob3I6bWlkZGxlOyIgeT0iODAzLjAwIiB4PSI5NDYuNzIiPjI4PC90ZXh0PiYjeGE7JiN4YTs8ZWxsaXBzZSBzdHlsZT0iZmlsbDp1cmwoI1llbGxvdyk7c3Ryb2tlOnJnYigwLDAsMCk7c3Ryb2tlLXdpZHRoOjAuNTA7IiByeT0iMzguMzAiIHJ4PSIzOC4zMCIgY3k9IjYyNC44OSIgY3g9Ijg2OS4xMiIvPiYjeGE7PHRleHQgc3R5bGU9ImZvbnQtZmFtaWx5OkFyaWFsO2ZvbnQtd2VpZ2h0OiBib2xkO2ZvbnQtc2l6ZToxNXB4O2ZpbGw6cmdiKDAsMCwwKTt0ZXh0LWFuY2hvcjptaWRkbGU7IiB5PSI2MjkuODkiIHg9Ijg2OS4xMiI+Mjk8L3RleHQ+JiN4YTsmI3hhOzxlbGxpcHNlIHN0eWxlPSJmaWxsOnVybCgjWWVsbG93KTtzdHJva2U6cmdiKDAsMCwwKTtzdHJva2Utd2lkdGg6MC41MDsiIHJ5PSIyMy42MiIgcng9IjIzLjYyIiBjeT0iMzE3LjI5IiBjeD0iODA3LjA0Ii8+JiN4YTs8dGV4dCBzdHlsZT0iZm9udC1mYW1pbHk6QXJpYWw7Zm9udC13ZWlnaHQ6IGJvbGQ7Zm9udC1zaXplOjE1cHg7ZmlsbDpyZ2IoMCwwLDApO3RleHQtYW5jaG9yOm1pZGRsZTsiIHk9IjMyMi4yOSIgeD0iODA3LjA0Ij4zMDwvdGV4dD4mI3hhOyYjeGE7PGVsbGlwc2Ugc3R5bGU9ImZpbGw6dXJsKCNZZWxsb3cpO3N0cm9rZTpyZ2IoMCwwLDApO3N0cm9rZS13aWR0aDowLjUwOyIgcnk9IjI3LjYwIiByeD0iMjcuNjAiIGN5PSI0MjkuMTQiIGN4PSI4MTguNDQiLz4mI3hhOzx0ZXh0IHN0eWxlPSJmb250LWZhbWlseTpBcmlhbDtmb250LXdlaWdodDogYm9sZDtmb250LXNpemU6MTVweDtmaWxsOnJnYigwLDAsMCk7dGV4dC1hbmNob3I6bWlkZGxlOyIgeT0iNDM0LjE0IiB4PSI4MTguNDQiPjMxPC90ZXh0PiYjeGE7JiN4YTs8ZWxsaXBzZSBzdHlsZT0iZmlsbDp1cmwoI1llbGxvdyk7c3Ryb2tlOnJnYigwLDAsMCk7c3Ryb2tlLXdpZHRoOjAuNTA7IiByeT0iMjYuOTIiIHJ4PSIyNi45MiIgY3k9Ijc5OC4wMCIgY3g9IjgwNy4wNCIvPiYjeGE7PHRleHQgc3R5bGU9ImZvbnQtZmFtaWx5OkFyaWFsO2ZvbnQtd2VpZ2h0OiBib2xkO2ZvbnQtc2l6ZToxNXB4O2ZpbGw6cmdiKDAsMCwwKTt0ZXh0LWFuY2hvcjptaWRkbGU7IiB5PSI4MDMuMDAiIHg9IjgwNy4wNCI+MzI8L3RleHQ+JiN4YTsmI3hhOzxlbGxpcHNlIHN0eWxlPSJmaWxsOnVybCgjTGltZUdyZWVuKTtzdHJva2U6cmdiKDAsMCwwKTtzdHJva2Utd2lkdGg6MC41MDsiIHJ5PSIxMDcuNTkiIHJ4PSIxMDcuNTkiIGN5PSIxNDYuMjciIGN4PSI3NDQuOTYiLz4mI3hhOzx0ZXh0IHN0eWxlPSJmb250LWZhbWlseTpBcmlhbDtmb250LXdlaWdodDogYm9sZDtmb250LXNpemU6MTVweDtmaWxsOnJnYigwLDAsMCk7dGV4dC1hbmNob3I6bWlkZGxlOyIgeT0iMTUxLjI3IiB4PSI3NDQuOTYiPjMzPC90ZXh0PiYjeGE7JiN4YTs8ZWxsaXBzZSBzdHlsZT0iZmlsbDp1cmwoI1llbGxvdyk7c3Ryb2tlOnJnYigwLDAsMCk7c3Ryb2tlLXdpZHRoOjAuNTA7IiByeT0iNTEuMTYiIHJ4PSI1MS4xNiIgY3k9IjU1MC42OCIgY3g9Ijc0NC45NiIvPiYjeGE7PHRleHQgc3R5bGU9ImZvbnQtZmFtaWx5OkFyaWFsO2ZvbnQtd2VpZ2h0OiBib2xkO2ZvbnQtc2l6ZToxNXB4O2ZpbGw6cmdiKDAsMCwwKTt0ZXh0LWFuY2hvcjptaWRkbGU7IiB5PSI1NTUuNjgiIHg9Ijc0NC45NiI+MzQ8L3RleHQ+JiN4YTsmI3hhOzxlbGxpcHNlIHN0eWxlPSJmaWxsOnVybCgjWWVsbG93KTtzdHJva2U6cmdiKDAsMCwwKTtzdHJva2Utd2lkdGg6MC41MDsiIHJ5PSI0My4wOCIgcng9IjQzLjA4IiBjeT0iNjY4Ljk5IiBjeD0iNjA1LjI4Ii8+JiN4YTs8dGV4dCBzdHlsZT0iZm9udC1mYW1pbHk6QXJpYWw7Zm9udC13ZWlnaHQ6IGJvbGQ7Zm9udC1zaXplOjE1cHg7ZmlsbDpyZ2IoMCwwLDApO3RleHQtYW5jaG9yOm1pZGRsZTsiIHk9IjY3My45OSIgeD0iNjA1LjI4Ij4zNTwvdGV4dD4mI3hhOyYjeGE7PGVsbGlwc2Ugc3R5bGU9ImZpbGw6dXJsKCNZZWxsb3cpO3N0cm9rZTpyZ2IoMCwwLDApO3N0cm9rZS13aWR0aDowLjUwOyIgcnk9IjYxLjM4IiByeD0iNjEuMzgiIGN5PSIzNDIuMDIiIGN4PSI1NDMuMjAiLz4mI3hhOzx0ZXh0IHN0eWxlPSJmb250LWZhbWlseTpBcmlhbDtmb250LXdlaWdodDogYm9sZDtmb250LXNpemU6MTVweDtmaWxsOnJnYigwLDAsMCk7dGV4dC1hbmNob3I6bWlkZGxlOyIgeT0iMzQ3LjAyIiB4PSI1NDMuMjAiPjM2PC90ZXh0PiYjeGE7JiN4YTs8ZWxsaXBzZSBzdHlsZT0iZmlsbDp1cmwoI1llbGxvdyk7c3Ryb2tlOnJnYigwLDAsMCk7c3Ryb2tlLXdpZHRoOjAuNTA7IiByeT0iNTYuNjYiIHJ4PSI1Ni42NiIgY3k9IjE3My4xNiIgY3g9IjQ4OC4wMyIvPiYjeGE7PHRleHQgc3R5bGU9ImZvbnQtZmFtaWx5OkFyaWFsO2ZvbnQtd2VpZ2h0OiBib2xkO2ZvbnQtc2l6ZToxNXB4O2ZpbGw6cmdiKDAsMCwwKTt0ZXh0LWFuY2hvcjptaWRkbGU7IiB5PSIxNzguMTYiIHg9IjQ4OC4wMyI+Mzc8L3RleHQ+JiN4YTsmI3hhOzxlbGxpcHNlIHN0eWxlPSJmaWxsOnVybCgjWWVsbG93KTtzdHJva2U6cmdiKDAsMCwwKTtzdHJva2Utd2lkdGg6MC41MDsiIHJ5PSIyNS4xNCIgcng9IjI1LjE0IiBjeT0iNDQ3LjQzIiBjeD0iNDY2LjgxIi8+JiN4YTs8dGV4dCBzdHlsZT0iZm9udC1mYW1pbHk6QXJpYWw7Zm9udC13ZWlnaHQ6IGJvbGQ7Zm9udC1zaXplOjE1cHg7ZmlsbDpyZ2IoMCwwLDApO3RleHQtYW5jaG9yOm1pZGRsZTsiIHk9IjQ1Mi40MyIgeD0iNDY2LjgxIj4zODwvdGV4dD4mI3hhOyYjeGE7PGVsbGlwc2Ugc3R5bGU9ImZpbGw6dXJsKCNZZWxsb3cpO3N0cm9rZTpyZ2IoMCwwLDApO3N0cm9rZS13aWR0aDowLjUwOyIgcnk9IjI2LjkyIiByeD0iMjYuOTIiIGN5PSI3MDUuNTYiIGN4PSI0ODEuMTIiLz4mI3hhOzx0ZXh0IHN0eWxlPSJmb250LWZhbWlseTpBcmlhbDtmb250LXdlaWdodDogYm9sZDtmb250LXNpemU6MTVweDtmaWxsOnJnYigwLDAsMCk7dGV4dC1hbmNob3I6bWlkZGxlOyIgeT0iNzEwLjU2IiB4PSI0ODEuMTIiPjM5PC90ZXh0PiYjeGE7JiN4YTs8ZWxsaXBzZSBzdHlsZT0iZmlsbDp1cmwoI1llbGxvdyk7c3Ryb2tlOnJnYigwLDAsMCk7c3Ryb2tlLXdpZHRoOjAuNTA7IiByeT0iNTcuMTUiIHJ4PSI1Ny4xNSIgY3k9IjU2NS43NCIgY3g9IjQwMy41MiIvPiYjeGE7PHRleHQgc3R5bGU9ImZvbnQtZmFtaWx5OkFyaWFsO2ZvbnQtd2VpZ2h0OiBib2xkO2ZvbnQtc2l6ZToxNXB4O2ZpbGw6cmdiKDAsMCwwKTt0ZXh0LWFuY2hvcjptaWRkbGU7IiB5PSI1NzAuNzQiIHg9IjQwMy41MiI+NDA8L3RleHQ+JiN4YTsmI3hhOzxlbGxpcHNlIHN0eWxlPSJmaWxsOnVybCgjUmVkKTtzdHJva2U6cmdiKDAsMCwwKTtzdHJva2Utd2lkdGg6MC41MDsiIHJ5PSIyOC45MiIgcng9IjI4LjkyIiBjeT0iNjgyLjk3IiBjeD0iMzQxLjQ0Ii8+JiN4YTs8dGV4dCBzdHlsZT0iZm9udC1mYW1pbHk6QXJpYWw7Zm9udC13ZWlnaHQ6IGJvbGQ7Zm9udC1zaXplOjE1cHg7ZmlsbDpyZ2IoMCwwLDApO3RleHQtYW5jaG9yOm1pZGRsZTsiIHk9IjY4Ny45NyIgeD0iMzQxLjQ0Ij40MTwvdGV4dD4mI3hhOyYjeGE7PGVsbGlwc2Ugc3R5bGU9ImZpbGw6dXJsKCNSZWQpO3N0cm9rZTpyZ2IoMCwwLDApO3N0cm9rZS13aWR0aDowLjUwOyIgcnk9IjM1LjAxIiByeD0iMzUuMDEiIGN5PSI3OTguMDAiIGN4PSIzNDEuNDQiLz4mI3hhOzx0ZXh0IHN0eWxlPSJmb250LWZhbWlseTpBcmlhbDtmb250LXdlaWdodDogYm9sZDtmb250LXNpemU6MTVweDtmaWxsOnJnYigwLDAsMCk7dGV4dC1hbmNob3I6bWlkZGxlOyIgeT0iODAzLjAwIiB4PSIzNDEuNDQiPjQyPC90ZXh0PiYjeGE7JiN4YTs8ZWxsaXBzZSBzdHlsZT0iZmlsbDp1cmwoI1JlZCk7c3Ryb2tlOnJnYigwLDAsMCk7c3Ryb2tlLXdpZHRoOjAuNTA7IiByeT0iNjguNzkiIHJ4PSI2OC43OSIgY3k9IjY1My45MyIgY3g9Ijc3LjYwIi8+JiN4YTs8dGV4dCBzdHlsZT0iZm9udC1mYW1pbHk6QXJpYWw7Zm9udC13ZWlnaHQ6IGJvbGQ7Zm9udC1zaXplOjE1cHg7ZmlsbDpyZ2IoMCwwLDApO3RleHQtYW5jaG9yOm1pZGRsZTsiIHk9IjY1OC45MyIgeD0iNzcuNjAiPjQzPC90ZXh0PiYjeGE7PC9nPiAgICAgICAgICYjeGE7PC9zdmc+;" vertex="1" parent="1">
          <mxGeometry y="50" width="1181.51" height="639" as="geometry" />
        </mxCell>
        <mxCell id="7voxY5Re2SbjZICv-ZUU-22" value="" style="group" vertex="1" connectable="0" parent="1">
          <mxGeometry x="30" y="720" width="1120" height="20" as="geometry" />
        </mxCell>
        <mxCell id="7vTWxpTUgAqM-lZmj-m4-6" value="2016" style="shape=partialRectangle;whiteSpace=wrap;bottom=0;right=0;fillColor=none;container=0;" parent="7voxY5Re2SbjZICv-ZUU-22" vertex="1">
          <mxGeometry x="763.4931239655041" width="50.92908692233529" height="20" as="geometry" />
        </mxCell>
        <mxCell id="7vTWxpTUgAqM-lZmj-m4-7" value="2017" style="shape=partialRectangle;whiteSpace=wrap;bottom=0;right=0;fillColor=none;container=0;" parent="7voxY5Re2SbjZICv-ZUU-22" vertex="1">
          <mxGeometry x="814.4222108878392" width="50.92908692233529" height="20" as="geometry" />
        </mxCell>
        <mxCell id="7vTWxpTUgAqM-lZmj-m4-8" value="2018" style="shape=partialRectangle;whiteSpace=wrap;bottom=0;right=0;fillColor=none;container=0;" parent="7voxY5Re2SbjZICv-ZUU-22" vertex="1">
          <mxGeometry x="865.3512978101744" width="50.92908692233529" height="20" as="geometry" />
        </mxCell>
        <mxCell id="7vTWxpTUgAqM-lZmj-m4-9" value="2019" style="shape=partialRectangle;whiteSpace=wrap;bottom=0;right=0;fillColor=none;container=0;" parent="7voxY5Re2SbjZICv-ZUU-22" vertex="1">
          <mxGeometry x="916.2803847325093" width="50.92908692233529" height="20" as="geometry" />
        </mxCell>
        <mxCell id="7vTWxpTUgAqM-lZmj-m4-10" value="2020" style="shape=partialRectangle;whiteSpace=wrap;bottom=0;right=0;fillColor=none;container=0;" parent="7voxY5Re2SbjZICv-ZUU-22" vertex="1">
          <mxGeometry x="967.2094716548447" width="50.92908692233529" height="20" as="geometry" />
        </mxCell>
        <mxCell id="7vTWxpTUgAqM-lZmj-m4-11" value="2021" style="shape=partialRectangle;whiteSpace=wrap;bottom=0;right=0;fillColor=none;container=0;" parent="7voxY5Re2SbjZICv-ZUU-22" vertex="1">
          <mxGeometry x="1018.1399106768329" width="50.92908692233529" height="20" as="geometry" />
        </mxCell>
        <mxCell id="3Stw6r_B2xiS9IpdGpiu-2" value="2022" style="shape=partialRectangle;whiteSpace=wrap;bottom=0;right=0;fillColor=none;container=0;" parent="7voxY5Re2SbjZICv-ZUU-22" vertex="1">
          <mxGeometry x="1069.0709130776647" width="50.92908692233529" height="20" as="geometry" />
        </mxCell>
        <mxCell id="7voxY5Re2SbjZICv-ZUU-4" value="2008" style="shape=partialRectangle;whiteSpace=wrap;bottom=0;right=0;fillColor=none;container=0;" vertex="1" parent="7voxY5Re2SbjZICv-ZUU-22">
          <mxGeometry x="356.5073025027158" width="50.92908692233529" height="20" as="geometry" />
        </mxCell>
        <mxCell id="7voxY5Re2SbjZICv-ZUU-5" value="2009" style="shape=partialRectangle;whiteSpace=wrap;bottom=0;right=0;fillColor=none;container=0;" vertex="1" parent="7voxY5Re2SbjZICv-ZUU-22">
          <mxGeometry x="407.436389425051" width="50.92908692233529" height="20" as="geometry" />
        </mxCell>
        <mxCell id="7voxY5Re2SbjZICv-ZUU-6" value="2010" style="shape=partialRectangle;whiteSpace=wrap;bottom=0;right=0;fillColor=none;container=0;" vertex="1" parent="7voxY5Re2SbjZICv-ZUU-22">
          <mxGeometry x="458.3654763473863" width="50.92908692233529" height="20" as="geometry" />
        </mxCell>
        <mxCell id="7voxY5Re2SbjZICv-ZUU-7" value="2011" style="shape=partialRectangle;whiteSpace=wrap;bottom=0;right=0;fillColor=none;container=0;" vertex="1" parent="7voxY5Re2SbjZICv-ZUU-22">
          <mxGeometry x="509.29456326972144" width="50.92908692233529" height="20" as="geometry" />
        </mxCell>
        <mxCell id="7voxY5Re2SbjZICv-ZUU-8" value="2012" style="shape=partialRectangle;whiteSpace=wrap;bottom=0;right=0;fillColor=none;container=0;" vertex="1" parent="7voxY5Re2SbjZICv-ZUU-22">
          <mxGeometry x="560.2236501920564" width="50.92908692233529" height="20" as="geometry" />
        </mxCell>
        <mxCell id="7voxY5Re2SbjZICv-ZUU-9" value="2013" style="shape=partialRectangle;whiteSpace=wrap;bottom=0;right=0;fillColor=none;container=0;" vertex="1" parent="7voxY5Re2SbjZICv-ZUU-22">
          <mxGeometry x="611.1540892140446" width="50.92908692233529" height="20" as="geometry" />
        </mxCell>
        <mxCell id="7voxY5Re2SbjZICv-ZUU-10" value="2014" style="shape=partialRectangle;whiteSpace=wrap;bottom=0;right=0;fillColor=none;container=0;" vertex="1" parent="7voxY5Re2SbjZICv-ZUU-22">
          <mxGeometry x="662.0850916148764" width="50.92908692233529" height="20" as="geometry" />
        </mxCell>
        <mxCell id="7voxY5Re2SbjZICv-ZUU-11" value="2015" style="shape=partialRectangle;whiteSpace=wrap;bottom=0;right=0;fillColor=none;container=0;" vertex="1" parent="7voxY5Re2SbjZICv-ZUU-22">
          <mxGeometry x="713.0141785372117" width="50.478945428292256" height="20" as="geometry" />
        </mxCell>
        <mxCell id="7voxY5Re2SbjZICv-ZUU-12" style="edgeStyle=orthogonalEdgeStyle;rounded=0;orthogonalLoop=1;jettySize=auto;html=1;exitX=1;exitY=1;exitDx=0;exitDy=0;entryX=1;entryY=0;entryDx=0;entryDy=0;endArrow=none;endFill=0;" edge="1" parent="7voxY5Re2SbjZICv-ZUU-22" source="7voxY5Re2SbjZICv-ZUU-11" target="7voxY5Re2SbjZICv-ZUU-11">
          <mxGeometry relative="1" as="geometry" />
        </mxCell>
        <mxCell id="7voxY5Re2SbjZICv-ZUU-14" value="2001" style="shape=partialRectangle;whiteSpace=wrap;bottom=0;right=0;fillColor=none;container=0;" vertex="1" parent="7voxY5Re2SbjZICv-ZUU-22">
          <mxGeometry width="50.92908692233529" height="20" as="geometry" />
        </mxCell>
        <mxCell id="7voxY5Re2SbjZICv-ZUU-15" value="2002" style="shape=partialRectangle;whiteSpace=wrap;bottom=0;right=0;fillColor=none;container=0;" vertex="1" parent="7voxY5Re2SbjZICv-ZUU-22">
          <mxGeometry x="50.92908692233522" width="50.92908692233529" height="20" as="geometry" />
        </mxCell>
        <mxCell id="7voxY5Re2SbjZICv-ZUU-16" value="2003" style="shape=partialRectangle;whiteSpace=wrap;bottom=0;right=0;fillColor=none;container=0;" vertex="1" parent="7voxY5Re2SbjZICv-ZUU-22">
          <mxGeometry x="101.85817384467056" width="50.92908692233529" height="20" as="geometry" />
        </mxCell>
        <mxCell id="7voxY5Re2SbjZICv-ZUU-17" value="2004" style="shape=partialRectangle;whiteSpace=wrap;bottom=0;right=0;fillColor=none;container=0;" vertex="1" parent="7voxY5Re2SbjZICv-ZUU-22">
          <mxGeometry x="152.7872607670056" width="50.92908692233529" height="20" as="geometry" />
        </mxCell>
        <mxCell id="7voxY5Re2SbjZICv-ZUU-18" value="2005" style="shape=partialRectangle;whiteSpace=wrap;bottom=0;right=0;fillColor=none;container=0;" vertex="1" parent="7voxY5Re2SbjZICv-ZUU-22">
          <mxGeometry x="203.7163476893407" width="50.92908692233529" height="20" as="geometry" />
        </mxCell>
        <mxCell id="7voxY5Re2SbjZICv-ZUU-19" value="2006" style="shape=partialRectangle;whiteSpace=wrap;bottom=0;right=0;fillColor=none;container=0;" vertex="1" parent="7voxY5Re2SbjZICv-ZUU-22">
          <mxGeometry x="254.6467867113288" width="50.92908692233529" height="20" as="geometry" />
        </mxCell>
        <mxCell id="7voxY5Re2SbjZICv-ZUU-20" value="2007" style="shape=partialRectangle;whiteSpace=wrap;bottom=0;right=0;fillColor=none;container=0;" vertex="1" parent="7voxY5Re2SbjZICv-ZUU-22">
          <mxGeometry x="305.5777891121607" width="50.92908692233529" height="20" as="geometry" />
        </mxCell>
        <mxCell id="7voxY5Re2SbjZICv-ZUU-24" value="PhD Genetics&#xa;Harvard Medical School&#xa;Harvard University" style="endArrow=classic;verticalAlign=top;fontSize=14;startArrow=classic;startFill=1;endFill=1;" edge="1" parent="1">
          <mxGeometry x="20" y="720" width="50" height="50" as="geometry">
            <mxPoint x="10" y="750" as="sourcePoint" />
            <mxPoint x="180" y="750" as="targetPoint" />
            <mxPoint x="1" as="offset" />
          </mxGeometry>
        </mxCell>
        <mxCell id="7voxY5Re2SbjZICv-ZUU-25" value="Topics" parent="0" />
        <mxCell id="7voxY5Re2SbjZICv-ZUU-26" value="I: SAGA complex&#xa;in baker&#39;s yeast" style="rounded=1;fillColor=#f8cecc;strokeColor=#b85450;fontSize=14;fontStyle=1" vertex="1" parent="7voxY5Re2SbjZICv-ZUU-25">
          <mxGeometry x="110" y="450" width="120" height="60" as="geometry" />
        </mxCell>
        <mxCell id="7voxY5Re2SbjZICv-ZUU-27" value="IIa: Drosophila&#xa;dosage compensation" style="rounded=1;fillColor=#fff2cc;strokeColor=#d6b656;fontSize=14;fontStyle=1" vertex="1" parent="7voxY5Re2SbjZICv-ZUU-25">
          <mxGeometry x="170" y="260" width="160" height="60" as="geometry" />
        </mxCell>
        <mxCell id="7voxY5Re2SbjZICv-ZUU-28" value="III: ???" style="rounded=1;fillColor=#d5e8d4;strokeColor=#82b366;fontSize=14;fontStyle=1" vertex="1" parent="7voxY5Re2SbjZICv-ZUU-25">
          <mxGeometry x="380" y="30" width="120" height="60" as="geometry" />
        </mxCell>
        <mxCell id="7voxY5Re2SbjZICv-ZUU-29" value="IIb: Drosophila&#xa;something else" style="rounded=1;fillColor=#fff2cc;strokeColor=#d6b656;fontStyle=1;fontSize=14;" vertex="1" parent="7voxY5Re2SbjZICv-ZUU-25">
          <mxGeometry x="960" y="610" width="120" height="60" as="geometry" />
        </mxCell>
        <mxCell id="7voxY5Re2SbjZICv-ZUU-30" value="Genetic and biochemical&#xa;characterization of S.cerevisiae&#xa;SAGA complex as a coactivator&#xa;for transcriptional activation by Gal4" style="text;strokeColor=none;fillColor=#f8cecc;align=center;verticalAlign=middle;rounded=0;" vertex="1" parent="7voxY5Re2SbjZICv-ZUU-25">
          <mxGeometry x="90" y="340" width="200" height="90" as="geometry" />
        </mxCell>
      </root>
    </mxGraphModel>
  </diagram>
</mxfile>
